<?xml version="1.0" encoding="utf-8"?>
<!-- Generator: Adobe Illustrator 27.5.0, SVG Export Plug-In . SVG Version: 6.00 Build 0)  -->
<svg version="1.1" xmlns="http://www.w3.org/2000/svg" xmlns:xlink="http://www.w3.org/1999/xlink" x="0px" y="0px"
	 viewBox="0 0 500 500" style="enable-background:new 0 0 500 500;" xml:space="preserve">
<g id="BACKGROUND">
	<rect style="fill:#FCF7E3;" width="500" height="500"/>
</g>
<g id="OBJECTS">
	<path style="fill:#EAE3CA;" d="M261.525,442.651c-1.639-0.058-3.28-0.119-4.922-0.183c-21.203-0.826-43.516-0.503-62.896,9.244
		c-10.527,5.294,8.894,10.167,12.875,11.736c9.969,3.928,21.211,4.156,31.8,4.853c29.011,1.908,58.645,3.786,86.94-1.321
		c7.426-1.34,16.148-4.911,12.283-11.56c-2.568-4.418-9.126-7.525-15.233-8.475C302.099,443.79,281.905,443.377,261.525,442.651z"/>
	<g>
		<path style="fill:#D778C6;" d="M322.397,400.907c-0.225,0.225-0.191,0.855-0.045,1.619c0.236,1.271,0.798,2.901,1.08,3.542
			c0.45,1.035-5.162,6.343-5.162,6.792c0,0-2.137-6.939-8.716-7.152c-6.59-0.214-12.832,2.665-13.428,9.514
			c0,0-1.17-4.431-1.912-5.173c-0.742-0.731-1.473-2.204-0.292-4.869c0.45-1.023,0.011-2.35-0.708-3.587
			c-1.136-2.002-2.98-3.79-2.98-3.79c-6.208-6.939-6.793-19.928-7.681-26.563c-0.888-6.646-1.035-14.17-3.093-19.039
			c-2.069-4.869-6.208-27.744-6.208-27.744s-3.093-13.585,0.304-24.797c3.385-11.212,1.912-32.917,1.912-38.225
			c0-5.308-5.308-10.335-5.308-10.335c-2.215,5.758-21.997,16.531-21.997,16.531c1.631,2.811-1.619,2.654-1.619,2.654
			s5.904,4.869,9.447,9.008c3.542,4.127,2.654,10.773,2.654,10.773s3.689,3.981,5.016,8.12c0.551,1.732,0.079,3.093-0.675,4.105
			c-1.023,1.394-2.564,2.092-2.564,2.092s-8.209,10.222-13.518,9.154c0,0-2.755-3.396-6.579-2.969
			c-3.486,0.394-11.921,0.607-14.833,4.824c-0.855-2.317-0.787-3.779-0.787-3.779l-2.058-5.207l-0.157-0.405
			c-1.777-0.585-4.431-2.946-4.138-5.454c0.304-2.508-2.654-7.827-4.127-11.077c-1.473-3.239-6.792-11.212-8.12-12.247
			c-1.327-1.035-1.327-7.523-1.327-7.523l-2.508-5.612c0,0-2.654-10.178,1.923-20.512c4.555-10.301,35.336-21.848,35.336-22.365
			c0,0,26.382,11.659,67.53-13.206c0.292,1.035,8.412,4.869,12.101,17.274c3.689,12.393,1.327,20.074,1.619,20.22
			c0.292,0.146,1.035,7.816,1.777,10.92c0.731,3.093,0,4.42-1.484,7.962c-1.473,3.542-1.619,5.465-0.292,10.335
			c3.351,12.292,0,15.204-0.888,19.635c-0.877,4.42-1.327,7.816,0.888,11.066c2.215,3.25,1.619,5.162-0.888,10.774
			s-0.292,7.67,0,10.031c0.304,2.362,0.888,5.319,1.484,9.447c0.585,4.138,2.362,12.247,4.566,21.997
			c2.215,9.739,0.157,35.267,0.157,35.267S322.993,400.311,322.397,400.907z"/>
		<path style="fill:#6D1FC5;" d="M265.583,333.6c-2.508,5.173-2.508,16.531-2.508,16.531c0.439,31.444-13.281,35.278-13.281,35.278
			s-6.646-2.069-9.154-2.654c-2.508-0.596-5.612-6.5-5.162-12.55c0.439-6.05-1.631-44.129-1.631-44.129
			c-5.106-4.071-7.366-7.962-8.356-10.684c2.913-4.217,11.347-4.431,14.833-4.824c3.824-0.427,6.579,2.969,6.579,2.969
			c5.308,1.068,13.518-9.154,13.518-9.154c1.023,5.016,7.962,7.816,7.962,7.816C272.071,318.699,268.09,328.438,265.583,333.6z"/>
		<path style="fill:#6D1FC5;" d="M321.07,449.017c-3.981,14.608-20.659,17.116-29.655,15.058
			c-9.008-2.069-8.862-13.585-6.354-17.274c2.508-3.689,9.447-24.201,9.739-24.797c0.304-0.585,1.327-6.781,1.327-6.781
			c0.596-6.849,6.837-9.728,13.428-9.514c6.579,0.214,8.716,7.152,8.716,7.152c0,0.439-1.766,9.143,1.181,21.401
			C322.397,446.509,321.07,449.017,321.07,449.017z"/>
		<g>
			<g>
				<path style="fill:#1B2335;" d="M261.705,243.365c3.66,5.353,9.68,8.889,12.409,14.903c0.266,0.585,1.128,0.077,0.863-0.505
					c-2.738-6.033-8.745-9.544-12.409-14.903C262.207,242.332,261.34,242.832,261.705,243.365L261.705,243.365z"/>
			</g>
		</g>
		<g>
			<g>
				<path style="fill:#1B2335;" d="M259.737,245.641c2.142,1.414,4.352,2.843,6.891,3.41c0.627,0.14,0.895-0.824,0.266-0.964
					c-2.457-0.549-4.58-1.942-6.652-3.31C259.703,244.422,259.201,245.288,259.737,245.641L259.737,245.641z"/>
			</g>
		</g>
		<g>
			<g>
				<path style="fill:#1B2335;" d="M283.78,310.175c1.429,6.983,5.014,13.822,11.179,17.704c0.546,0.344,1.049-0.521,0.505-0.863
					c-5.949-3.746-9.343-10.382-10.719-17.107C284.616,309.28,283.652,309.546,283.78,310.175L283.78,310.175z"/>
			</g>
		</g>
		<g>
			<g>
				<path style="fill:#1B2335;" d="M310.934,301.282c0.064,7.712-1.162,15.387-3.618,22.698c-0.205,0.611,0.76,0.874,0.964,0.266
					c2.483-7.389,3.719-15.169,3.654-22.964C311.929,300.638,310.929,300.637,310.934,301.282L310.934,301.282z"/>
			</g>
		</g>
		<g>
			<g>
				<path style="fill:#FFFFFF;" d="M305.142,212.953c4.175,4.695,5.059,11.166,5.107,17.219c0.027,3.39-0.159,6.778-0.101,10.168
					c0.059,3.411,0.307,6.816,0.645,10.21c0.671,6.742,1.677,13.446,2.312,20.192c0.322,3.423,0.578,6.852,0.811,10.282
					c0.231,3.408,0.474,6.779,0.34,10.196c-0.064,1.615-0.111,3.238,0.108,4.844c0.224,1.64,0.595,3.258,0.822,4.899
					c0.489,3.532,0.421,6.945-0.587,10.381c-0.402,1.37-0.777,2.756-0.614,4.195c0.172,1.526,0.751,2.992,1.085,4.487
					c0.359,1.609,0.62,3.25,0.778,4.891c0.158,1.639-0.037,3.258-0.176,4.89c-0.576,6.768,1.075,13.508,1.96,20.178
					c0.9,6.787,1.46,13.617,1.802,20.455c0.328,6.554,1.118,13.639-1.114,19.946c-1.002,2.831-2.533,5.594-2.903,8.61
					c-0.161,1.309,0.146,2.373,0.881,3.454c0.845,1.242,1.418,2.525,1.48,4.049c0.058,1.433-0.306,2.812-1.043,4.04
					c-0.332,0.553,0.532,1.056,0.863,0.505c1.318-2.194,1.557-4.923,0.586-7.301c-0.531-1.3-1.721-2.337-1.816-3.787
					c-0.101-1.549,0.57-3.24,1.102-4.669c1.142-3.066,2.473-5.966,2.942-9.237c0.466-3.247,0.371-6.534,0.263-9.802
					c-0.23-6.908-0.648-13.811-1.378-20.685c-0.359-3.384-0.795-6.759-1.316-10.122c-0.547-3.536-1.169-7.069-1.365-10.647
					c-0.094-1.726-0.079-3.449,0.073-5.171c0.144-1.636,0.314-3.247,0.141-4.888c-0.164-1.549-0.392-3.097-0.717-4.62
					c-0.347-1.63-1.047-3.261-1.159-4.928c-0.11-1.638,0.539-3.184,0.943-4.741c0.396-1.53,0.59-3.112,0.619-4.691
					c0.064-3.481-0.842-6.768-1.21-10.196c-0.182-1.694-0.082-3.404-0.016-5.101c0.068-1.731,0.02-3.433-0.091-5.161
					c-0.224-3.496-0.454-6.992-0.736-10.484c-0.562-6.96-1.502-13.869-2.295-20.804c-0.395-3.454-0.732-6.916-0.905-10.389
					c-0.17-3.399-0.103-6.791-0.038-10.192c0.116-6.045-0.041-12.39-3.005-17.834c-0.658-1.208-1.455-2.323-2.368-3.349
					C305.42,211.764,304.715,212.473,305.142,212.953L305.142,212.953z"/>
			</g>
		</g>
		<g>
			<g>
				<path style="fill:#FFFFFF;" d="M260.931,248.893c-3.631,3.717-8.595,5.525-13.289,7.484c-2.319,0.968-4.632,1.982-6.78,3.295
					c-1.032,0.631-2.178,1.31-2.901,2.304c-0.747,1.027-0.669,2.222-0.024,3.276c0.701,1.145,1.617,2.03,1.997,3.361
					c0.372,1.302,0.33,2.708-0.154,3.975c-0.952,2.493-3.336,4.15-4.02,6.791c-0.715,2.76,0.412,5.587,1.817,7.932
					c1.449,2.417,3.244,4.665,5.044,6.827c4.215,5.066,9.051,9.741,14.582,13.355c0.54,0.353,1.042-0.512,0.505-0.863
					c-4.786-3.127-9.018-7.082-12.797-11.355c-1.878-2.124-3.649-4.345-5.282-6.663c-1.585-2.25-3.215-4.914-3.084-7.773
					c0.127-2.781,2.355-4.551,3.646-6.813c1.239-2.171,1.323-4.848,0.147-7.07c-0.557-1.053-1.891-2.057-1.936-3.312
					c-0.045-1.266,1.412-2.11,2.327-2.705c2.071-1.348,4.323-2.389,6.594-3.351c5.037-2.134,10.405-3.983,14.316-7.987
					C262.088,249.139,261.381,248.431,260.931,248.893L260.931,248.893z"/>
			</g>
		</g>
		<g>
			<g>
				<path style="fill:#1B2335;" d="M248.539,267.053c-3.45-0.232-7.211-0.502-10.007-2.781c-0.495-0.403-1.206,0.3-0.707,0.707
					c3.03,2.47,6.96,2.821,10.714,3.074C249.182,268.096,249.179,267.096,248.539,267.053L248.539,267.053z"/>
			</g>
		</g>
		<g>
			<g>
				<path style="fill:#1B2335;" d="M241.555,269.1c0.907,0.439,1.836,0.835,2.783,1.182c0.461,0.169,0.926,0.326,1.395,0.47
					c0.473,0.146,0.97,0.297,1.458,0.128c0.605-0.209,0.345-1.175-0.266-0.964c-0.368,0.127-0.808-0.089-1.161-0.201
					c-0.421-0.134-0.838-0.278-1.253-0.431c-0.834-0.309-1.651-0.66-2.452-1.047c-0.243-0.118-0.54-0.066-0.684,0.179
					C241.248,268.635,241.311,268.982,241.555,269.1L241.555,269.1z"/>
			</g>
		</g>
		<g>
			<g>
				<path style="fill:#1B2335;" d="M224.983,297.383c8.194,1.855,16.911,1.169,24.721-1.928c2.2-0.872,4.32-1.926,6.34-3.159
					c0.548-0.335,0.047-1.2-0.505-0.863c-6.968,4.253-15.173,6.318-23.325,5.935c-2.347-0.11-4.675-0.431-6.966-0.949
					C224.622,296.277,224.354,297.241,224.983,297.383L224.983,297.383z"/>
			</g>
		</g>
		<g>
			<g>
				<path style="fill:#1B2335;" d="M248.922,310.871c4.311-1.769,8.032-4.702,10.752-8.487c0.376-0.523-0.491-1.023-0.863-0.505
					c-2.553,3.553-6.106,6.366-10.154,8.028C248.069,310.148,248.326,311.116,248.922,310.871L248.922,310.871z"/>
			</g>
		</g>
		<g>
			<g>
				<path style="fill:#1B2335;" d="M231.707,296.437c4.043,1.209,8.287,1.486,12.456,0.849c0.634-0.097,0.365-1.061-0.266-0.964
					c-3.987,0.609-8.063,0.306-11.924-0.849C231.355,295.288,231.091,296.253,231.707,296.437L231.707,296.437z"/>
			</g>
		</g>
		<g>
			<g>
				<path style="fill:#1B2335;" d="M225.485,306.883c6.535,0.582,13.158-0.778,18.948-3.858c0.568-0.302,0.064-1.166-0.505-0.863
					c-5.642,3.001-12.08,4.288-18.443,3.721C224.845,305.826,224.848,306.827,225.485,306.883L225.485,306.883z"/>
			</g>
		</g>
		<g>
			<g>
				<path style="fill:#1B2335;" d="M219.396,245.599c0.204,6.289-1.29,12.551-4.325,18.064c-0.311,0.564,0.553,1.069,0.863,0.505
					c3.117-5.662,4.671-12.108,4.462-18.569C220.375,244.957,219.375,244.954,219.396,245.599L219.396,245.599z"/>
			</g>
		</g>
		<g>
			<g>
				<path style="fill:#1B2335;" d="M222.403,263.361c-0.126,0.247-0.264,0.488-0.413,0.721c-0.077,0.12-0.156,0.238-0.239,0.354
					c-0.039,0.055-0.079,0.109-0.119,0.163c-0.021,0.028-0.061,0.08-0.017,0.024c-0.023,0.03-0.046,0.059-0.07,0.088
					c-0.351,0.439-0.745,0.842-1.174,1.205c-0.201,0.169-0.188,0.535,0,0.707c0.213,0.196,0.493,0.181,0.707,0
					c0.901-0.761,1.651-1.709,2.189-2.758c0.119-0.233,0.068-0.553-0.179-0.684C222.859,263.06,222.53,263.112,222.403,263.361
					L222.403,263.361z"/>
			</g>
		</g>
		<g>
			<g>
				<path style="fill:#1B2335;" d="M297.392,213.024c1.162,3.992,2.914,7.808,5.203,11.28c1.126,1.708,2.379,3.335,3.745,4.858
					c1.08,1.205,2.748,3.001,4.515,1.988c0.558-0.32,0.055-1.185-0.505-0.863c-0.819,0.47-1.736-0.235-2.321-0.788
					c-0.65-0.615-1.236-1.315-1.811-1.999c-1.217-1.447-2.327-2.983-3.328-4.588c-1.97-3.161-3.492-6.578-4.533-10.153
					C298.177,212.142,297.211,212.404,297.392,213.024L297.392,213.024z"/>
			</g>
		</g>
		<g>
			<g>
				<path style="fill:#1B2335;" d="M318.28,374.987c-2.991,7.807-7.823,15.135-14.099,20.695c-1.781,1.578-3.772,2.945-6.064,3.649
					c-0.613,0.189-0.352,1.154,0.266,0.964c4.146-1.275,7.396-4.495,10.229-7.642c2.913-3.235,5.448-6.815,7.528-10.64
					c1.186-2.181,2.217-4.443,3.105-6.761C319.475,374.651,318.508,374.391,318.28,374.987L318.28,374.987z"/>
			</g>
		</g>
		<g>
			<g>
				<path style="fill:#1B2335;" d="M302.806,403.336c5.512-0.692,10.954-1.837,16.273-3.443c0.614-0.186,0.353-1.151-0.266-0.964
					c-5.23,1.579-10.586,2.726-16.008,3.407C302.176,402.415,302.168,403.416,302.806,403.336L302.806,403.336z"/>
			</g>
		</g>
		<g>
			<g>
				<path style="fill:#1B2335;" d="M235.798,369.566c6.995-3.636,16.087-2.495,21.964,2.761c0.478,0.428,1.188-0.277,0.707-0.707
					c-4.84-4.328-11.699-6.037-18.037-4.745c-1.79,0.365-3.518,0.986-5.139,1.829C234.722,369,235.228,369.863,235.798,369.566
					L235.798,369.566z"/>
			</g>
		</g>
		<g>
			<g>
				<path style="fill:#1B2335;" d="M246.528,384.614c2.077-1.466,4.279-2.774,6.197-4.453c1.777-1.555,3.201-3.46,4.231-5.583
					c2.106-4.341,2.657-9.247,2.629-14.018c-0.034-5.781-0.803-11.564-0.168-17.338c0.585-5.315,2.159-10.458,3.484-15.619
					c1.463-5.699,2.667-11.579,1.928-17.483c-0.079-0.63-1.08-0.638-1,0c1.313,10.491-3.415,20.39-5.064,30.557
					c-0.902,5.565-0.489,11.105-0.262,16.704c0.201,4.932,0.109,9.955-1.563,14.658c-0.861,2.423-2.171,4.705-3.988,6.538
					c-2.041,2.059-4.578,3.513-6.931,5.174C245.501,384.119,246,384.986,246.528,384.614L246.528,384.614z"/>
			</g>
		</g>
		<g>
			<g>
				<path style="fill:#1B2335;" d="M246.662,366.558c1.002-1.223,1.406-2.707,1.71-4.231c0.335-1.677,0.576-3.374,0.739-5.076
					c0.337-3.502,0.332-7.029,0.141-10.54c-0.383-7.043-1.493-14.019-2.151-21.037c-0.372-3.969-0.596-7.954-0.469-11.941
					c0.02-0.644-0.98-0.643-1,0c-0.436,13.773,3.395,27.318,2.66,41.095c-0.105,1.962-0.305,3.919-0.631,5.857
					c-0.294,1.746-0.548,3.752-1.706,5.167C245.551,366.345,246.254,367.057,246.662,366.558L246.662,366.558z"/>
			</g>
		</g>
		<g>
			<g>
				<path style="fill:#1B2335;" d="M234.323,326.503c1.519-1.217,3.43-1.875,5.29-2.367c1.854-0.49,3.9-0.748,5.686,0.119
					c0.577,0.28,1.084-0.582,0.505-0.863c-1.98-0.961-4.182-0.797-6.262-0.27c-2.106,0.533-4.215,1.303-5.925,2.674
					C233.114,326.198,233.826,326.902,234.323,326.503L234.323,326.503z"/>
			</g>
		</g>
		<g>
			<g>
				<path style="fill:#1B2335;" d="M234.715,329.988c1.846-1.017,3.913-1.468,5.998-1.655c0.995-0.089,1.994-0.125,2.993-0.144
					c0.844-0.016,2.209-0.256,2.906,0.339c0.487,0.415,1.198-0.289,0.707-0.707c-0.793-0.676-1.771-0.655-2.761-0.644
					c-1.212,0.014-2.425,0.039-3.633,0.138c-2.337,0.192-4.645,0.669-6.715,1.81C233.646,329.435,234.15,330.299,234.715,329.988
					L234.715,329.988z"/>
			</g>
		</g>
		<g>
			<g>
				<path style="fill:#1B2335;" d="M234.777,333.628c3.625-1.284,7.552-2.345,11.382-1.363c0.624,0.16,0.89-0.804,0.266-0.964
					c-4.01-1.028-8.114,0.017-11.914,1.363C233.908,332.877,234.168,333.843,234.777,333.628L234.777,333.628z"/>
			</g>
		</g>
		<g>
			<g>
				<path style="fill:#1B2335;" d="M234.561,337.675c4.321-1.63,9.029-1.995,13.544-1.011c0.627,0.137,0.895-0.827,0.266-0.964
					c-4.683-1.021-9.588-0.682-14.075,1.011C233.699,336.936,233.957,337.903,234.561,337.675L234.561,337.675z"/>
			</g>
		</g>
		<g>
			<g>
				<path style="fill:#1B2335;" d="M235.082,341.088c4.462-1.288,9.168-1.556,13.744-0.754c0.629,0.11,0.9-0.853,0.266-0.964
					c-4.756-0.834-9.635-0.586-14.275,0.754C234.199,340.302,234.462,341.267,235.082,341.088L235.082,341.088z"/>
			</g>
		</g>
		<g>
			<g>
				<path style="fill:#1B2335;" d="M235.095,345.858c0.996-0.514,2.103-0.688,3.205-0.817c1.257-0.147,2.518-0.257,3.78-0.335
					c1.222-0.075,2.446-0.119,3.671-0.132c1.125-0.011,2.319-0.074,3.342,0.472c0.567,0.303,1.073-0.56,0.505-0.863
					c-1.008-0.538-2.112-0.611-3.235-0.612c-1.428-0.001-2.857,0.047-4.283,0.135c-1.368,0.084-2.736,0.204-4.096,0.373
					c-1.181,0.147-2.328,0.365-3.395,0.916C234.018,345.29,234.523,346.153,235.095,345.858L235.095,345.858z"/>
			</g>
		</g>
		<g>
			<g>
				<path style="fill:#1B2335;" d="M235.912,349.555c4.27-0.928,8.685-1.089,13.01-0.456c0.63,0.092,0.901-0.871,0.266-0.964
					c-4.512-0.66-9.084-0.512-13.542,0.456C235.018,348.727,235.283,349.691,235.912,349.555L235.912,349.555z"/>
			</g>
		</g>
		<g>
			<g>
				<path style="fill:#1B2335;" d="M235.505,354.392c4.183-1.311,8.58-1.701,12.93-1.16c0.637,0.079,0.631-0.921,0-1
					c-4.429-0.551-8.937-0.139-13.195,1.196C234.628,353.62,234.889,354.586,235.505,354.392L235.505,354.392z"/>
			</g>
		</g>
		<g>
			<g>
				<path style="fill:#1B2335;" d="M238.06,366.988c-0.16-0.134-0.053-0.425-0.016-0.607c0.07-0.339,0.151-0.675,0.244-1.008
					c0.174-0.624,0.385-1.241,0.641-1.836c0.208-0.483,0.448-0.992,0.924-1.259c0.473-0.266,1.057-0.322,1.589-0.282
					c2.221,0.168,3.609,2.43,2.925,4.502c-0.202,0.613,0.763,0.875,0.964,0.266c0.685-2.077-0.295-4.458-2.306-5.363
					c-0.995-0.448-2.189-0.576-3.228-0.189c-1.188,0.443-1.652,1.536-2.068,2.646c-0.259,0.691-0.467,1.401-0.623,2.122
					c-0.124,0.573-0.271,1.283,0.244,1.715C237.843,368.106,238.554,367.402,238.06,366.988L238.06,366.988z"/>
			</g>
		</g>
		<g>
			<g>
				<path style="fill:#1B2335;" d="M228.605,319.875c0.748-1.314,2.025-2.149,3.384-2.741c1.409-0.614,3.193-1.258,4.717-0.716
					c1.457,0.518,2.139,2.028,1.219,3.36c-0.855,1.238-2.589,1.84-4.002,2.129c-1.66,0.339-3.409,0.169-4.82-0.82
					c-0.528-0.37-1.029,0.497-0.505,0.863c1.514,1.06,3.385,1.276,5.177,0.995c1.759-0.276,3.83-1.039,4.916-2.526
					c1.057-1.448,0.821-3.313-0.621-4.39c-1.609-1.201-3.699-0.837-5.46-0.208c-1.924,0.687-3.826,1.718-4.868,3.548
					C227.422,319.93,228.286,320.434,228.605,319.875L228.605,319.875z"/>
			</g>
		</g>
		<g>
			<g>
				<path style="fill:#1B2335;" d="M256.409,307.876c-1.001,3.168-0.844,6.6,0.199,9.737c0.949,2.854,2.669,6.267,5.571,7.54
					c0.584,0.256,1.093-0.605,0.505-0.863c-2.723-1.194-4.318-4.453-5.176-7.141c-0.934-2.925-1.065-6.064-0.135-9.007
					C257.568,307.527,256.603,307.264,256.409,307.876L256.409,307.876z"/>
			</g>
		</g>
		<g>
			<g>
				<path style="fill:#1B2335;" d="M284.714,456.538c1.953,2.284,4.999,3.11,7.842,3.635c3.26,0.602,6.614,0.798,9.911,0.399
					c5.913-0.715,11.5-3.375,15.188-8.147c1.89-2.446,3.135-5.305,3.523-8.377c0.08-0.637-0.92-0.631-1,0
					c-0.664,5.256-4.186,9.807-8.641,12.505c-5.196,3.147-11.604,3.75-17.517,2.857c-3.037-0.459-6.503-1.128-8.598-3.579
					C285.002,455.341,284.298,456.051,284.714,456.538L284.714,456.538z"/>
			</g>
		</g>
		<g>
			<g>
				<path style="fill:#1B2335;" d="M286.232,446.399c4.115-2.369,8.733-3.835,13.465-4.252c2.298-0.203,4.619-0.168,6.909,0.117
					c2.405,0.299,4.731,0.944,6.639,2.5c1.894,1.545,3.293,3.585,4.655,5.588c0.36,0.529,1.227,0.029,0.863-0.505
					c-1.283-1.886-2.595-3.802-4.294-5.345c-1.793-1.629-3.921-2.574-6.295-3.005c-4.878-0.886-10.011-0.546-14.773,0.799
					c-2.68,0.757-5.261,1.85-7.674,3.239C285.169,445.856,285.672,446.721,286.232,446.399L286.232,446.399z"/>
			</g>
		</g>
		<g>
			<g>
				<path style="fill:#1B2335;" d="M295.842,415.224c0.442,4.402,0.886,8.825,0.698,13.255c-0.184,4.337-1.09,8.584-2.196,12.77
					c-0.165,0.623,0.8,0.888,0.964,0.266c1.107-4.19,2.013-8.448,2.22-12.788c0.216-4.512-0.236-9.019-0.687-13.503
					C296.778,414.59,295.778,414.583,295.842,415.224L295.842,415.224z"/>
			</g>
		</g>
		<g>
			<g>
				<path style="fill:#1B2335;" d="M316.567,411.622c-1.02,1.665-1.137,3.691-1.396,5.58c-0.285,2.077-0.555,4.157-0.739,6.245
					c-0.37,4.192-0.405,8.445-1.423,12.55c-0.535,2.155-1.34,4.224-2.543,6.096c-0.349,0.543,0.516,1.045,0.863,0.505
					c2.084-3.243,2.979-7.033,3.429-10.818c0.508-4.277,0.624-8.584,1.182-12.859c0.16-1.227,0.319-2.455,0.507-3.678
					c0.168-1.091,0.4-2.165,0.983-3.117C317.768,411.577,316.903,411.074,316.567,411.622L316.567,411.622z"/>
			</g>
		</g>
		<g>
			<g>
				<path style="fill:#1B2335;" d="M299.384,441.379c0.055-0.499,0.151-0.992,0.284-1.476c0.111-0.403,0.223-1.014,0.582-1.277
					c0.365-0.267,1.02-0.295,1.451-0.334c0.516-0.047,1.035-0.049,1.552-0.024c0.494,0.024,0.986,0.072,1.477,0.131
					c0.49,0.059,1.036,0.077,1.509,0.228c0.869,0.277,1.017,1.697,0.897,2.449c-0.1,0.63,0.863,0.901,0.964,0.266
					c0.176-1.101-0.003-2.514-0.89-3.299c-0.474-0.419-1.093-0.461-1.693-0.542c-0.698-0.094-1.397-0.184-2.101-0.224
					c-0.681-0.039-1.363-0.033-2.041,0.051c-0.589,0.073-1.255,0.151-1.744,0.517c-0.496,0.371-0.693,0.998-0.864,1.567
					c-0.194,0.643-0.311,1.3-0.385,1.966C298.313,442.017,299.314,442.012,299.384,441.379L299.384,441.379z"/>
			</g>
		</g>
		<g>
			<g>
				<path style="fill:#1B2335;" d="M297.234,422.959c5.663-2.189,12.013-2.11,17.623,0.212c0.594,0.246,0.853-0.721,0.266-0.964
					c-5.75-2.38-12.35-2.455-18.155-0.212C296.375,422.224,296.633,423.192,297.234,422.959L297.234,422.959z"/>
			</g>
		</g>
		<g>
			<g>
				<path style="fill:#1B2335;" d="M297.765,425.545c2.798-0.756,5.691-1.072,8.587-0.921c1.401,0.073,2.799,0.251,4.169,0.553
					c1.295,0.285,2.576,0.712,3.573,1.62c0.475,0.433,1.184-0.273,0.707-0.707c-2.085-1.9-5.289-2.249-7.987-2.437
					c-3.13-0.218-6.288,0.111-9.316,0.928C296.879,424.748,297.142,425.713,297.765,425.545L297.765,425.545z"/>
			</g>
		</g>
		<g>
			<g>
				<path style="fill:#1B2335;" d="M297.352,428.098c5.537-0.869,11.231-0.294,16.497,1.615c0.606,0.22,0.867-0.746,0.266-0.964
					c-5.443-1.974-11.312-2.513-17.029-1.615C296.452,427.233,296.721,428.197,297.352,428.098L297.352,428.098z"/>
			</g>
		</g>
		<g>
			<g>
				<path style="fill:#1B2335;" d="M297.699,431.202c5.52-0.977,11.228-0.426,16.474,1.543c0.603,0.226,0.864-0.74,0.266-0.964
					c-5.419-2.033-11.31-2.551-17.005-1.543C296.801,430.349,297.069,431.313,297.699,431.202L297.699,431.202z"/>
			</g>
		</g>
		<g>
			<g>
				<path style="fill:#1B2335;" d="M296.888,435.032c5.502-0.619,11.068-0.228,16.425,1.171c0.623,0.163,0.889-0.802,0.266-0.964
					c-5.439-1.42-11.105-1.835-16.691-1.206C296.256,434.103,296.249,435.104,296.888,435.032L296.888,435.032z"/>
			</g>
		</g>
		<g>
			<g>
				<path style="fill:#1B2335;" d="M309.461,410.703c-2.215-0.529-4.57-0.224-6.568,0.88c-0.819,0.453-1.874,1.113-2.161,2.066
					c-0.328,1.088,0.554,1.876,1.355,2.443c1.761,1.247,4.004,1.836,6.152,1.672c2.004-0.153,4.536-0.923,5.339-2.975
					c0.44-1.124,0.103-2.322-0.765-3.137c-0.981-0.921-2.313-1.171-3.596-1.368c-0.63-0.096-0.901,0.867-0.266,0.964
					c1.48,0.227,4.268,0.789,3.781,2.911c-0.399,1.738-2.673,2.406-4.215,2.578c-1.666,0.186-3.4-0.114-4.892-0.883
					c-0.607-0.313-1.794-0.88-1.953-1.611c-0.172-0.794,1.174-1.492,1.726-1.798c1.758-0.974,3.847-1.244,5.797-0.779
					C309.82,411.817,310.087,410.853,309.461,410.703L309.461,410.703z"/>
			</g>
		</g>
		<g>
			<g>
				<path style="fill:#1B2335;" d="M328.862,346.686c2.12,9.597,2.774,19.497,1.935,29.29c-0.241,2.81-0.608,5.607-1.094,8.386
					c-0.11,0.629,0.853,0.9,0.964,0.266c1.722-9.849,1.95-19.937,0.634-29.85c-0.373-2.806-0.864-5.594-1.475-8.357
					C329.687,345.792,328.723,346.058,328.862,346.686L328.862,346.686z"/>
			</g>
		</g>
		<g>
			<g>
				<path style="fill:#1B2335;" d="M333.881,352.314c1.442,7.32,1.455,14.888,0.039,22.214c-0.122,0.629,0.842,0.898,0.964,0.266
					c1.452-7.511,1.439-15.24-0.039-22.745C334.721,351.417,333.757,351.684,333.881,352.314L333.881,352.314z"/>
			</g>
		</g>
		<path style="fill:#A9471D;" d="M222.152,97.76c-0.935,0.95-1.723,2.043-2.33,3.23c-0.092,0.181-0.183,0.376-0.163,0.578
			c0.035,0.355,0.385,0.583,0.708,0.735c1.569,0.739,3.342,0.922,5.077,0.94c3.283,0.035,6.546-0.478,9.779-1.052
			c6.175-1.098,12.307-2.427,18.43-3.788c1.593-0.354,3.204-0.717,4.66-1.453c2.414-1.221,4.21-3.364,5.9-5.476
			c0.207-0.259,0.424-0.547,0.422-0.879c-0.003-0.332-0.36-0.665-0.654-0.512c-4.891-1.24-10.223-0.66-15.185,0.253
			c-6.783,1.248-13.464,3.056-19.951,5.399c-2.155,0.778-4.294,1.617-6.516,2.172C222.148,97.952,222.087,97.933,222.152,97.76z"/>
		<path style="fill:#315CDF;" d="M307.662,209.306c-0.278-0.948-0.875-3.325-2.226-6.85c-1.35-3.515-2.567-4.865-1.216-9.596
			c1.35-4.741,2.701-8.926,1.216-12.585c-1.484-3.649-12.575-26.109-13.802-29.892c-1.175-3.68-2.608-9.627-2.69-9.988
			c0.247,0.268,4.319,4.731,8.514,5.257l3.515,1.216c0,0,11.493-14.204,17.317-15.832c5.813-1.618,3.649-3.515,3.649-3.515
			l-1.763-2.165c0,0,1.897-1.082-0.938-4.061c-2.845-2.969-16.234-4.999-18.265-6.349c-2.031-1.361-5.277-6.494-7.308-8.256
			c-2.031-1.763-8.792-3.649-15.956-3.649c-7.174,0-14.338,1.752-14.482,1.35c-0.134-0.402,2.443-5.411-1.618-8.926
			c-4.061-3.515-10.823-3.659-10.823-3.659l-10.689,7.174l3.69,6.762l-10.184,0.577c0,0,0.062-0.247,0.134-0.629
			c0.278-1.556,0.629-5.401-2.979-4.35c-4.494,1.309-6.556,3.371-6.556,6.463l-24.738,3.092c0,0-18.451,2.062-26.697,18.554
			l-1.969,1.02l-0.134,1.154c0,0-19.007,15.255-23.161,19.76c-4.154,4.494-8.854,11.843-6.607,17.502
			c2.247,5.649,18.729,15.461,24.109,15.183c5.381-0.268,11.854-2.041,11.854-2.041s6.061,5.721,9.122,5.247
			c0,0,6.947-16.626,12.802-17.162c0,0,0.691-0.752-0.062-2.051c-0.752-1.288-4.968-3.401-4.968-3.401s0.196-2.659-1.639-4.082
			c-1.835-1.433-7.7-3.474-7.7-3.474l16.482-6.205c0,0,6.401,4.772,9.132,5.587c2.721,0.814,5.442,4.226,5.721,4.36l-0.278-0.134
			c0,0,20.44,29.985,20.976,33.366c0.546,3.381-4.329,8.38-2.433,12.575c1.897,4.195,7.978,7.844,7.978,7.844
			s-3.639,4.236-2.567,7.442c0,0,16.403,6.492,35.819,1.042C294.662,217.529,307.662,209.306,307.662,209.306z"/>
		<path style="fill:#C67F60;" d="M243.56,110.997c-5.965,0.493-11.4-4.33-13.438-11.296c-0.001,0-0.002,0-0.004-0.001
			c0.001,0,0.002,0,0.003-0.001c-0.388-1.327-0.666-2.723-0.787-4.184c-0.763-9.143,4.391-17.028,11.493-17.616
			c6.731-0.557,12.812,5.659,14.07,14.09c0.072,0.454,0.124,0.917,0.165,1.392c0.01,0.113,0.021,0.227,0.021,0.34
			C255.682,102.72,250.58,110.419,243.56,110.997z"/>
		<path style="fill:#C67F60;" d="M252.136,104.864c0,0-0.082,0.299-0.237,0.814c-0.402,1.34-1.288,4.133-2.371,6.7
			c-1.185,2.793-2.628,5.319-3.948,5.453c-1.237,0.134-3.175-1.515-5.04-3.515c-1.814-1.948-3.556-4.216-4.494-5.494
			c-0.464-0.629-0.732-1.01-0.732-1.01L252.136,104.864z"/>
		<path style="fill:#C67F60;" d="M198.359,169.872c2.471-1.075,14.03,1.442,15.341,4.917c1.311,3.475,0.328,7.67,0.328,7.67
			s6.818,4.13,6.49,6.818c-0.328,2.688-7.408,3.344-7.408,3.344s-2.229,3.147-4.524,3.212c0,0-1.901,2.295-4.786,2.885
			c0,0-1.18,3.606-3.343,3.016s-12.784-8.719-13.702-16.259C186.755,185.475,191.278,172.954,198.359,169.872z"/>
		<path style="fill:#C67F60;" d="M305.011,139.388c-3.665,2.978-5.574,7.178-3.207,9.01c2.367,1.833,12.905,4.505,15.043,4.123
			s6.338-2.673,6.338-2.673s4.582,0.687,5.956-1.222c1.374-1.909,4.429-1.909,5.498-7.712c1.069-5.803-0.305-9.774-4.2-11.683
			c-3.894-1.909-10.308-1.909-15.348-0.458c-5.04,1.451-7.33,2.214-7.712,5.116C306.996,136.792,305.011,139.388,305.011,139.388z"
			/>
		<path style="fill:#9B5D48;" d="M255.084,93.721c-1.01,1.051-2.092,2.01-3.329,2.773c-2.082,1.299-4.484,1.979-6.875,2.556
			c-4.845,1.154-9.998,1.917-14.76,0.649c8.751-1.835,18.018-5.071,24.779-7.71c0.072,0.454,0.124,0.917,0.165,1.392
			C255.074,93.494,255.084,93.608,255.084,93.721z"/>
		<g>
			<g>
				<path style="fill:#1B2335;" d="M243.942,96.481c0.164,0.444,0.446,0.79,0.777,1.122c0.284,0.284,0.598,0.56,0.736,0.949
					c0.296,0.832-0.118,1.665-0.905,2.016c-0.247,0.11-0.305,0.469-0.179,0.684c0.149,0.254,0.437,0.29,0.684,0.179
					c1.068-0.477,1.643-1.641,1.456-2.778c-0.09-0.549-0.376-1.021-0.752-1.422c-0.292-0.311-0.701-0.605-0.852-1.016
					c-0.093-0.253-0.339-0.425-0.615-0.349C244.047,95.933,243.848,96.226,243.942,96.481L243.942,96.481z"/>
			</g>
		</g>
		<g>
			<g>
				<path style="fill:#1B2335;" d="M238.933,103.147c3.059,1.887,7.13,1.833,10.131-0.151c0.534-0.353,0.034-1.22-0.505-0.863
					c-2.716,1.796-6.348,1.862-9.122,0.151C238.888,101.944,238.385,102.809,238.933,103.147L238.933,103.147z"/>
			</g>
		</g>
		<g>
			<g>
				<path style="fill:#1B2335;" d="M238.995,103.353c0.026-0.038,0.054-0.075,0.082-0.112c-0.026,0.034-0.052,0.067-0.078,0.101
					c0.146-0.187,0.314-0.354,0.501-0.499c-0.034,0.026-0.067,0.052-0.101,0.078c0.151-0.116,0.314-0.216,0.485-0.299
					c0.108-0.052,0.199-0.187,0.23-0.299c0.033-0.12,0.018-0.279-0.05-0.385c-0.069-0.107-0.171-0.201-0.299-0.23
					c-0.137-0.031-0.259-0.011-0.385,0.05c-0.505,0.245-0.927,0.631-1.247,1.089c-0.071,0.101-0.082,0.27-0.05,0.385
					c0.032,0.116,0.122,0.242,0.23,0.299c0.116,0.061,0.257,0.092,0.385,0.05C238.826,103.541,238.917,103.465,238.995,103.353
					L238.995,103.353z"/>
			</g>
		</g>
		<path style="fill:#E15F27;" d="M264.516,90.176c0,0-3.055,1.165-7.799,2.701c-7.016,2.279-17.714,5.382-27.634,6.76
			c-3.077,0.42-6.091,0.689-8.882,0.705c0,0,2.089-3.36,5.143-5.724c0,0-0.584-8.088,0.849-12.423c0,0,1.542-6.083,12.774-7.475
			c11.233-1.402,13.683,2.061,14.163,3.953l2.903,7.42C256.034,86.094,262.259,88.575,264.516,90.176z"/>
		<path style="fill:#9B5D48;" d="M251.866,105.72c-0.443,2.293-1.435,4.516-2.338,6.658c-1.835,1.082-3.989,1.608-6.123,1.886
			c-0.948,0.124-1.917,0.196-2.865,0.051c-0.605-0.092-1.905-2.095-2.313-2.58c-0.738-0.879-1.632-1.827-2.094-2.862
			c0.065,0.145,1.516,0.454,1.742,0.539c0.611,0.231,1.206,0.502,1.821,0.723c3.748,1.347,8.726,0.346,11.179-2.898
			C251.205,106.802,251.421,106.014,251.866,105.72z"/>
		<g>
			<g>
				<path style="fill:#1B2335;" d="M225.397,94.627c6.138-0.39,12.196-1.644,17.978-3.743c0.6-0.218,0.341-1.185-0.266-0.964
					c-5.698,2.069-11.662,3.324-17.712,3.708C224.758,93.667,224.753,94.668,225.397,94.627L225.397,94.627z"/>
			</g>
		</g>
		<g>
			<g>
				<path style="fill:#1B2335;" d="M247.45,89.46c2.402-0.666,4.765-1.461,7.081-2.382c0.253-0.101,0.423-0.333,0.349-0.615
					c-0.063-0.239-0.365-0.449-0.615-0.349c-2.316,0.921-4.679,1.716-7.081,2.382C246.565,88.667,246.828,89.632,247.45,89.46
					L247.45,89.46z"/>
			</g>
		</g>
		<g>
			<g>
				<path style="fill:#1B2335;" d="M228.675,80.55c7.727,0.535,15.508-0.947,22.512-4.246c0.582-0.274,0.075-1.136-0.505-0.863
					c-6.846,3.224-14.462,4.632-22.008,4.109C228.033,79.506,228.035,80.506,228.675,80.55L228.675,80.55z"/>
			</g>
		</g>
		<g>
			<g>
				<path style="fill:#FFFFFF;" d="M262.853,103.879c-2.257,6.898-6.183,13.181-11.384,18.243c-0.462,0.45,0.245,1.156,0.707,0.707
					c5.324-5.182,9.331-11.624,11.641-18.685C264.018,103.532,263.053,103.269,262.853,103.879L262.853,103.879z"/>
			</g>
		</g>
		<g>
			<g>
				<path style="fill:#FFFFFF;" d="M258.289,101.652c-0.996,4.307-2.863,8.347-5.49,11.902c-0.383,0.518,0.485,1.017,0.863,0.505
					c2.672-3.616,4.578-7.76,5.591-12.141C259.398,101.291,258.434,101.024,258.289,101.652L258.289,101.652z"/>
			</g>
		</g>
		<g>
			<g>
				<path style="fill:#FFFFFF;" d="M231.085,110.62c2.666,4.879,7.36,8.514,12.751,9.876c0.624,0.158,0.89-0.806,0.266-0.964
					c-5.152-1.302-9.605-4.754-12.153-9.417C231.64,109.55,230.776,110.054,231.085,110.62L231.085,110.62z"/>
			</g>
		</g>
		<g>
			<g>
				<path style="fill:#FFFFFF;" d="M223.635,107.907c0.406,1.74,1.179,3.385,2.282,4.793c1.115,1.422,2.653,2.54,3.975,3.764
					c2.526,2.339,5.77,3.77,9.208,3.994c0.643,0.042,0.64-0.958,0-1c-3.234-0.211-6.305-1.609-8.648-3.84
					c-1.161-1.105-2.511-2.069-3.555-3.29c-1.141-1.335-1.901-2.986-2.298-4.687C224.453,107.015,223.488,107.28,223.635,107.907
					L223.635,107.907z"/>
			</g>
		</g>
		<g>
			<g>
				<path style="fill:#FFFFFF;" d="M242.676,126.302c0.69,2.799,0.836,5.675,1.025,8.54c0.153,2.31,0.143,4.926,1.717,6.789
					c0.416,0.492,1.12-0.218,0.707-0.707c-0.741-0.877-1.026-2.013-1.175-3.129c-0.173-1.295-0.227-2.609-0.311-3.912
					c-0.17-2.634-0.365-5.276-0.999-7.847C243.487,125.411,242.522,125.676,242.676,126.302L242.676,126.302z"/>
			</g>
		</g>
		<g>
			<g>
				<path style="fill:#FFFFFF;" d="M245.118,141.479c-0.078,0.218-0.155,0.436-0.233,0.654c-0.053,0.148-0.002,0.318,0.09,0.436
					c0.099,0.129,0.231,0.188,0.393,0.197c0.818,0.047,1.654-0.599,1.786-1.415c0.021-0.131,0.025-0.268-0.05-0.385
					c-0.068-0.106-0.172-0.203-0.299-0.23c-0.669-0.141-1.406,0.105-1.833,0.648c-0.262,0.333-0.465,0.769-0.357,1.202
					c0.052,0.211,0.189,0.382,0.365,0.503c0.15,0.103,0.326,0.142,0.505,0.159c0.293,0.027,0.63-0.068,0.867-0.242
					c0.311-0.228,0.534-0.535,0.659-0.9c0.227-0.664-0.054-1.49-0.774-1.685c-0.67-0.182-1.55,0.24-1.514,1.018
					c0.012,0.261,0.221,0.512,0.5,0.5c0.261-0.012,0.513-0.22,0.5-0.5c-0.001-0.032,0-0.063,0.003-0.094
					c-0.006,0.044-0.012,0.089-0.018,0.133c0.006-0.04,0.017-0.077,0.032-0.114c-0.017,0.04-0.034,0.08-0.05,0.119
					c0.016-0.036,0.036-0.069,0.059-0.1c-0.026,0.034-0.052,0.067-0.078,0.101c0.031-0.039,0.066-0.073,0.105-0.103
					c-0.034,0.026-0.067,0.052-0.101,0.078c0.046-0.034,0.094-0.061,0.146-0.084c-0.04,0.017-0.08,0.034-0.119,0.05
					c0.069-0.029,0.141-0.048,0.215-0.059c-0.044,0.006-0.089,0.012-0.133,0.018c0.076-0.009,0.151-0.01,0.226,0
					c-0.044-0.006-0.089-0.012-0.133-0.018c0.064,0.009,0.125,0.026,0.185,0.05c-0.04-0.017-0.08-0.034-0.119-0.05
					c0.049,0.021,0.094,0.048,0.136,0.08c-0.034-0.026-0.067-0.052-0.101-0.078c0.038,0.03,0.071,0.064,0.101,0.103
					c-0.026-0.034-0.052-0.067-0.078-0.101c0.037,0.051,0.068,0.105,0.094,0.163c-0.017-0.04-0.034-0.08-0.05-0.119
					c0.029,0.07,0.048,0.142,0.058,0.217c-0.006-0.044-0.012-0.089-0.018-0.133c0.01,0.083,0.009,0.165-0.001,0.249
					c0.006-0.044,0.012-0.089,0.018-0.133c-0.015,0.107-0.043,0.209-0.084,0.309c0.017-0.04,0.034-0.08,0.05-0.119
					c-0.046,0.107-0.105,0.207-0.176,0.3c0.026-0.034,0.052-0.067,0.078-0.101c-0.063,0.08-0.134,0.151-0.214,0.214
					c0.034-0.026,0.067-0.052,0.101-0.078c-0.059,0.045-0.123,0.082-0.191,0.111c0.04-0.017,0.08-0.034,0.119-0.05
					c-0.075,0.031-0.153,0.052-0.233,0.064c0.044-0.006,0.089-0.012,0.133-0.018c-0.072,0.009-0.143,0.011-0.215,0.002
					c0.044,0.006,0.089,0.012,0.133,0.018c-0.05-0.007-0.098-0.019-0.146-0.038c0.04,0.017,0.08,0.034,0.119,0.05
					c-0.034-0.015-0.066-0.033-0.096-0.055c0.034,0.026,0.067,0.052,0.101,0.078c-0.025-0.02-0.046-0.041-0.066-0.066
					c0.026,0.034,0.052,0.067,0.078,0.101c-0.019-0.026-0.035-0.054-0.048-0.084c0.017,0.04,0.034,0.08,0.05,0.119
					c-0.013-0.034-0.02-0.067-0.025-0.103c0.006,0.044,0.012,0.089,0.018,0.133c-0.004-0.046-0.002-0.091,0.004-0.137
					c-0.006,0.044-0.012,0.089-0.018,0.133c0.015-0.086,0.04-0.169,0.073-0.25c-0.017,0.04-0.034,0.08-0.05,0.119
					c0.043-0.099,0.096-0.19,0.161-0.275c-0.026,0.034-0.052,0.067-0.078,0.101c0.075-0.096,0.161-0.181,0.257-0.256
					c-0.034,0.026-0.067,0.052-0.101,0.078c0.098-0.074,0.203-0.135,0.315-0.183c-0.04,0.017-0.08,0.034-0.119,0.05
					c0.113-0.047,0.229-0.079,0.35-0.097c-0.044,0.006-0.089,0.012-0.133,0.018c0.114-0.014,0.227-0.015,0.34,0
					c-0.044-0.006-0.089-0.012-0.133-0.018c0.028,0.004,0.056,0.009,0.085,0.015c-0.116-0.205-0.233-0.41-0.349-0.615
					c-0.015,0.096-0.042,0.188-0.08,0.277c0.017-0.04,0.034-0.08,0.05-0.119c-0.042,0.095-0.095,0.184-0.158,0.267
					c0.026-0.034,0.052-0.067,0.078-0.101c-0.07,0.088-0.148,0.167-0.236,0.236c0.034-0.026,0.067-0.052,0.101-0.078
					c-0.089,0.068-0.185,0.125-0.287,0.17c0.04-0.017,0.08-0.034,0.119-0.05c-0.103,0.043-0.209,0.074-0.32,0.09
					c0.044-0.006,0.089-0.012,0.133-0.018c-0.074,0.009-0.148,0.012-0.222,0.008c0.161,0.211,0.321,0.422,0.482,0.633
					c0.078-0.218,0.155-0.436,0.233-0.654c0.088-0.247-0.099-0.558-0.349-0.615C245.453,141.065,245.212,141.214,245.118,141.479
					L245.118,141.479z"/>
			</g>
		</g>
		<g>
			<g>
				<path style="fill:#FFFFFF;" d="M245.083,142.101c0.092,1.034,0.485,1.985,1.146,2.785c0.167,0.202,0.536,0.186,0.707,0
					c0.197-0.215,0.179-0.491,0-0.707c-0.014-0.017-0.121-0.155-0.048-0.057c-0.032-0.043-0.064-0.087-0.095-0.131
					c-0.062-0.088-0.12-0.179-0.176-0.272s-0.107-0.187-0.155-0.284c-0.024-0.048-0.047-0.097-0.07-0.146
					c-0.011-0.025-0.022-0.049-0.033-0.074c0.021,0.051,0.025,0.06,0.011,0.026c-0.074-0.196-0.143-0.392-0.194-0.596
					c-0.026-0.105-0.048-0.21-0.066-0.317c-0.004-0.025-0.04-0.199-0.012-0.067c-0.011-0.052-0.012-0.108-0.017-0.161
					c-0.023-0.26-0.213-0.513-0.5-0.5C245.332,141.612,245.058,141.822,245.083,142.101L245.083,142.101z"/>
			</g>
		</g>
		<g>
			<g>
				<path style="fill:#FFFFFF;" d="M257.403,123.222c0.29,1.568,0.835,3.062,1.338,4.571c0.537,1.608,0.962,3.245,1.155,4.932
					c0.184,1.614,0.134,3.215,0.061,4.834c-0.071,1.575-0.07,3.162,0.437,4.673c0.204,0.607,1.17,0.347,0.964-0.266
					c-0.517-1.541-0.462-3.145-0.385-4.747c0.079-1.645,0.086-3.271-0.128-4.908c-0.209-1.598-0.596-3.148-1.103-4.676
					c-0.513-1.545-1.077-3.073-1.374-4.679C258.251,122.324,257.287,122.592,257.403,123.222L257.403,123.222z"/>
			</g>
		</g>
		<g>
			<g>
				<path style="fill:#FFFFFF;" d="M260.3,142.226c-0.241,0.088-0.451,0.238-0.574,0.469c-0.103,0.194-0.159,0.422-0.142,0.642
					c0.017,0.224,0.072,0.453,0.201,0.641c0.16,0.235,0.371,0.39,0.64,0.482c0.252,0.087,0.538,0.078,0.795,0.017
					c0.268-0.064,0.504-0.201,0.717-0.371c0.472-0.374,0.764-1.079,0.41-1.63c-0.293-0.455-0.878-0.719-1.414-0.658
					c-0.311,0.035-0.579,0.137-0.821,0.339c-0.183,0.153-0.318,0.385-0.372,0.617c-0.115,0.495,0.052,1.085,0.524,1.338
					c0.504,0.27,1.173,0.055,1.448-0.445c0.153-0.278,0.166-0.604,0.02-0.888c-0.108-0.209-0.324-0.363-0.549-0.421
					c-0.195-0.05-0.423-0.048-0.613,0.022c-0.216,0.08-0.427,0.216-0.527,0.433c-0.059,0.127-0.101,0.262-0.088,0.404
					c0.013,0.135,0.047,0.254,0.146,0.354c0.087,0.087,0.229,0.152,0.354,0.146c0.25-0.011,0.526-0.221,0.5-0.5
					c-0.002-0.025-0.003-0.048,0-0.073c-0.006,0.044-0.012,0.089-0.018,0.133c0.004-0.027,0.01-0.053,0.02-0.079
					c-0.017,0.04-0.034,0.08-0.05,0.119c0.011-0.025,0.024-0.047,0.039-0.069c-0.026,0.034-0.052,0.067-0.078,0.101
					c0.02-0.025,0.042-0.046,0.066-0.066c-0.034,0.026-0.067,0.052-0.101,0.078c0.034-0.026,0.07-0.046,0.109-0.063
					c-0.04,0.017-0.08,0.034-0.119,0.05c0.046-0.018,0.093-0.031,0.141-0.038c-0.044,0.006-0.089,0.012-0.133,0.018
					c0.054-0.007,0.108-0.007,0.162,0c-0.044-0.006-0.089-0.012-0.133-0.018c0.043,0.007,0.084,0.018,0.125,0.034
					c-0.04-0.017-0.08-0.034-0.119-0.05c0.03,0.014,0.058,0.029,0.085,0.049c-0.034-0.026-0.067-0.052-0.101-0.078
					c0.022,0.018,0.042,0.037,0.06,0.058c-0.026-0.034-0.052-0.067-0.078-0.101c0.018,0.023,0.032,0.047,0.044,0.074
					c-0.017-0.04-0.034-0.08-0.05-0.119c0.014,0.034,0.023,0.068,0.028,0.103c-0.006-0.044-0.012-0.089-0.018-0.133
					c0.004,0.037,0.004,0.073-0.001,0.111c0.006-0.044,0.012-0.089,0.018-0.133c-0.006,0.037-0.016,0.071-0.029,0.106
					c0.017-0.04,0.034-0.08,0.05-0.119c-0.018,0.04-0.039,0.077-0.065,0.113c0.026-0.034,0.052-0.067,0.078-0.101
					c-0.036,0.046-0.076,0.086-0.122,0.123c0.034-0.026,0.067-0.052,0.101-0.078c-0.048,0.035-0.098,0.064-0.152,0.088
					c0.04-0.017,0.08-0.034,0.119-0.05c-0.049,0.019-0.098,0.033-0.15,0.041c0.044-0.006,0.089-0.012,0.133-0.018
					c-0.045,0.006-0.089,0.006-0.134,0.002c0.044,0.006,0.089,0.012,0.133,0.018c-0.045-0.006-0.087-0.017-0.13-0.034
					c0.04,0.017,0.08,0.034,0.119,0.05c-0.041-0.019-0.078-0.042-0.114-0.069c0.034,0.026,0.067,0.052,0.101,0.078
					c-0.034-0.028-0.064-0.058-0.091-0.092c0.026,0.034,0.052,0.067,0.078,0.101c-0.034-0.044-0.062-0.092-0.085-0.143
					c0.017,0.04,0.034,0.08,0.05,0.119c-0.027-0.065-0.044-0.131-0.054-0.2c0.006,0.044,0.012,0.089,0.018,0.133
					c-0.008-0.071-0.008-0.14,0.001-0.211c-0.006,0.044-0.012,0.089-0.018,0.133c0.01-0.07,0.028-0.138,0.056-0.204
					c-0.017,0.04-0.034,0.08-0.05,0.119c0.023-0.053,0.052-0.102,0.086-0.149c-0.026,0.034-0.052,0.067-0.078,0.101
					c0.039-0.05,0.084-0.094,0.133-0.133c-0.034,0.026-0.067,0.052-0.101,0.078c0.06-0.045,0.123-0.081,0.191-0.111
					c-0.04,0.017-0.08,0.034-0.119,0.05c0.077-0.031,0.155-0.052,0.237-0.064c-0.044,0.006-0.089,0.012-0.133,0.018
					c0.098-0.013,0.196-0.013,0.294-0.001c-0.044-0.006-0.089-0.012-0.133-0.018c0.099,0.014,0.194,0.038,0.286,0.075
					c-0.04-0.017-0.08-0.034-0.119-0.05c0.088,0.037,0.169,0.084,0.245,0.141c-0.034-0.026-0.067-0.052-0.101-0.078
					c0.057,0.046,0.108,0.096,0.153,0.154c-0.026-0.034-0.052-0.067-0.078-0.101c0.028,0.039,0.052,0.079,0.072,0.122
					c-0.017-0.04-0.034-0.08-0.05-0.119c0.019,0.045,0.032,0.091,0.04,0.139c-0.006-0.044-0.012-0.089-0.018-0.133
					c0.006,0.052,0.006,0.103,0.001,0.156c0.006-0.044,0.012-0.089,0.018-0.133c-0.009,0.061-0.026,0.119-0.048,0.177
					c0.017-0.04,0.034-0.08,0.05-0.119c-0.035,0.083-0.081,0.159-0.135,0.232c0.026-0.034,0.052-0.067,0.078-0.101
					c-0.069,0.089-0.147,0.167-0.235,0.237c0.034-0.026,0.067-0.052,0.101-0.078c-0.093,0.071-0.193,0.13-0.3,0.177
					c0.04-0.017,0.08-0.034,0.119-0.05c-0.099,0.041-0.201,0.07-0.308,0.085c0.044-0.006,0.089-0.012,0.133-0.018
					c-0.082,0.01-0.163,0.011-0.245,0.002c0.044,0.006,0.089,0.012,0.133,0.018c-0.074-0.01-0.145-0.028-0.214-0.055
					c0.04,0.017,0.08,0.034,0.119,0.05c-0.056-0.024-0.11-0.052-0.159-0.088c0.034,0.026,0.067,0.052,0.101,0.078
					c-0.045-0.035-0.085-0.075-0.12-0.121c0.026,0.034,0.052,0.067,0.078,0.101c-0.038-0.051-0.068-0.106-0.093-0.164
					c0.017,0.04,0.034,0.08,0.05,0.119c-0.026-0.065-0.044-0.132-0.054-0.201c0.006,0.044,0.012,0.089,0.018,0.133
					c-0.009-0.074-0.01-0.148,0-0.222c-0.006,0.044-0.012,0.089-0.018,0.133c0.009-0.061,0.025-0.119,0.048-0.175
					c-0.017,0.04-0.034,0.08-0.05,0.119c0.02-0.044,0.044-0.086,0.073-0.124c-0.026,0.034-0.052,0.067-0.078,0.101
					c0.027-0.033,0.057-0.063,0.091-0.089c-0.034,0.026-0.067,0.052-0.101,0.078c0.032-0.023,0.064-0.042,0.1-0.057
					c-0.04,0.017-0.08,0.034-0.119,0.05c0.011-0.004,0.021-0.009,0.032-0.012c0.124-0.045,0.23-0.112,0.299-0.23
					c0.063-0.107,0.089-0.265,0.05-0.385C260.837,142.334,260.563,142.13,260.3,142.226L260.3,142.226z"/>
			</g>
		</g>
		<g>
			<g>
				<path style="fill:#FFFFFF;" d="M260.627,143.685c0.159,1.031,0.124,2.13-0.089,3.153c-0.055,0.264,0.077,0.54,0.349,0.615
					c0.248,0.068,0.56-0.084,0.615-0.349c0.254-1.22,0.279-2.454,0.089-3.685c-0.041-0.267-0.376-0.415-0.615-0.349
					C260.691,143.148,260.586,143.417,260.627,143.685L260.627,143.685z"/>
			</g>
		</g>
		<g>
			<g>
				<path style="fill:#FFFFFF;" d="M207.141,137.541c0.774,9.032,3.73,17.81,8.609,25.453c0.345,0.541,1.211,0.04,0.863-0.505
					c-4.781-7.49-7.714-16.093-8.472-24.948C208.087,136.904,207.086,136.899,207.141,137.541L207.141,137.541z"/>
			</g>
		</g>
		<g>
			<g>
				<path style="fill:#FFFFFF;" d="M203.489,143.863c1.935,5.376,5.118,10.242,9.289,14.15c0.469,0.44,1.178-0.266,0.707-0.707
					c-4.043-3.787-7.155-8.494-9.032-13.708C204.237,142.996,203.27,143.255,203.489,143.863L203.489,143.863z"/>
			</g>
		</g>
		<g>
			<g>
				<path style="fill:#FFFFFF;" d="M311.615,125.562c-3.478,0.945-6.794,2.772-9.131,5.559c-2.355,2.808-3.651,6.525-3.164,10.192
					c0.083,0.629,1.085,0.637,1,0c-0.461-3.47,0.723-7.002,3.001-9.637c2.23-2.58,5.296-4.263,8.56-5.149
					C312.502,126.358,312.238,125.393,311.615,125.562L311.615,125.562z"/>
			</g>
		</g>
		<g>
			<g>
				<path style="fill:#FFFFFF;" d="M277.694,132.101c2.92,4.071,6.701,7.464,11.079,9.904c0.563,0.314,1.068-0.55,0.505-0.863
					c-4.223-2.354-7.901-5.615-10.72-9.545C278.186,131.078,277.318,131.576,277.694,132.101L277.694,132.101z"/>
			</g>
		</g>
		<g>
			<g>
				<path style="fill:#FFFFFF;" d="M275.693,133.595c1.143,1.92,3.16,3.292,5.379,3.599c0.267,0.037,0.537-0.065,0.615-0.349
					c0.064-0.234-0.08-0.578-0.349-0.615c-1.975-0.273-3.758-1.42-4.781-3.139C276.227,132.538,275.362,133.04,275.693,133.595
					L275.693,133.595z"/>
			</g>
		</g>
		<g>
			<g>
				<path style="fill:#FFFFFF;" d="M245.591,214.602c3.594,0.667,7.188-0.011,10.725-0.693c3.657-0.705,7.313-1.41,10.97-2.116
					c6.665-1.285,13.489-2.303,19.942-4.468c3.39-1.138,6.663-2.639,9.593-4.703c0.522-0.368,0.023-1.235-0.505-0.863
					c-5.233,3.688-11.447,5.469-17.637,6.787c-6.866,1.462-13.786,2.694-20.679,4.023c-3.966,0.765-8.095,1.82-12.144,1.069
					C245.228,213.521,244.958,214.484,245.591,214.602L245.591,214.602z"/>
			</g>
		</g>
		<g>
			<g>
				<path style="fill:#FFFFFF;" d="M243.495,214.15c-1.576,2.118-2.334,4.808-2.102,7.438c0.056,0.636,1.057,0.642,1,0
					c-0.219-2.48,0.479-4.937,1.965-6.933c0.162-0.218,0.034-0.556-0.179-0.684C243.926,213.819,243.655,213.935,243.495,214.15
					L243.495,214.15z"/>
			</g>
		</g>
		<g>
			<g>
				<path style="fill:#FFFFFF;" d="M245.376,214.535c-1.373,2.672-1.784,5.734-1.168,8.674c0.132,0.629,1.096,0.363,0.964-0.266
					c-0.559-2.666-0.178-5.481,1.067-7.903C246.533,214.468,245.67,213.962,245.376,214.535L245.376,214.535z"/>
			</g>
		</g>
		<g>
			<g>
				<path style="fill:#FFFFFF;" d="M247.772,214.931c-0.379,1.561-0.629,3.154-0.737,4.758c-0.097,1.445-0.041,2.899,0.598,4.226
					c0.279,0.58,1.142,0.073,0.863-0.505c-0.581-1.204-0.546-2.583-0.45-3.885c0.107-1.461,0.344-2.905,0.69-4.328
					C248.888,214.571,247.924,214.305,247.772,214.931L247.772,214.931z"/>
			</g>
		</g>
		<g>
			<g>
				<path style="fill:#FFFFFF;" d="M250.778,214.496c-0.337,1.955-0.482,3.937-0.397,5.919c0.04,0.928,0.093,1.884,0.306,2.792
					c0.152,0.647,0.418,1.754,1.276,1.6c0.632-0.113,0.364-1.077-0.266-0.964c-0.031,0.006-0.062,0.011-0.094,0.017
					c0.128,0.017,0.257,0.034,0.385,0.05c-0.113-0.074-0.264-0.675-0.317-0.886c-0.093-0.371-0.147-0.749-0.186-1.13
					c-0.078-0.771-0.119-1.547-0.128-2.321c-0.018-1.612,0.111-3.221,0.384-4.81C251.85,214.132,250.887,213.862,250.778,214.496
					L250.778,214.496z"/>
			</g>
		</g>
		<g>
			<g>
				<path style="fill:#FFFFFF;" d="M253.964,213.948c-0.242,3.388,0.053,6.795,0.862,10.094c0.153,0.625,1.118,0.36,0.964-0.266
					c-0.789-3.217-1.062-6.525-0.826-9.828C255.01,213.305,254.009,213.308,253.964,213.948L253.964,213.948z"/>
			</g>
		</g>
		<g>
			<g>
				<path style="fill:#FFFFFF;" d="M256.637,213.422c0.294,3.636,1.006,7.224,2.14,10.692c0.199,0.609,1.165,0.348,0.964-0.266
					c-1.106-3.383-1.817-6.878-2.104-10.426C257.585,212.785,256.585,212.78,256.637,213.422L256.637,213.422z"/>
			</g>
		</g>
		<g>
			<g>
				<path style="fill:#FFFFFF;" d="M260.076,212.867c1.135,3.61,2.271,7.221,3.406,10.831c0.192,0.612,1.158,0.351,0.964-0.266
					c-1.135-3.61-2.271-7.221-3.406-10.831C260.848,211.989,259.882,212.25,260.076,212.867L260.076,212.867z"/>
			</g>
		</g>
		<g>
			<g>
				<path style="fill:#FFFFFF;" d="M264.209,212.536c2.277,3.307,3.05,7.298,3.78,11.172c0.119,0.632,1.083,0.364,0.964-0.266
					c-0.745-3.956-1.556-8.035-3.88-11.411C264.71,211.505,263.843,212.004,264.209,212.536L264.209,212.536z"/>
			</g>
		</g>
		<g>
			<g>
				<path style="fill:#FFFFFF;" d="M269.255,211.282c1.059,1.7,1.887,3.525,2.441,5.45c0.568,1.975,0.719,4.009,1.086,6.022
					c0.115,0.632,1.079,0.364,0.964-0.266c-0.38-2.082-0.537-4.181-1.144-6.218c-0.576-1.933-1.419-3.782-2.485-5.493
					C269.779,210.233,268.913,210.734,269.255,211.282L269.255,211.282z"/>
			</g>
		</g>
		<g>
			<g>
				<path style="fill:#FFFFFF;" d="M273.564,210.336c2.113,3.548,4.318,7.312,4.177,11.584c-0.021,0.644,0.979,0.643,1,0
					c0.147-4.451-2.111-8.39-4.314-12.089C274.099,209.279,273.234,209.781,273.564,210.336L273.564,210.336z"/>
			</g>
		</g>
		<g>
			<g>
				<path style="fill:#FFFFFF;" d="M278.272,209.626c2.507,3.412,3.192,7.673,3.821,11.757c0.098,0.634,1.061,0.365,0.964-0.266
					c-0.642-4.166-1.366-8.517-3.922-11.996C278.759,208.608,277.891,209.106,278.272,209.626L278.272,209.626z"/>
			</g>
		</g>
		<g>
			<g>
				<path style="fill:#FFFFFF;" d="M283.732,208.322c1.929,3.315,2.987,7.064,3.068,10.899c0.014,0.643,1.014,0.645,1,0
					c-0.085-4.008-1.187-7.938-3.204-11.404C284.271,207.262,283.407,207.765,283.732,208.322L283.732,208.322z"/>
			</g>
		</g>
		<g>
			<g>
				<path style="fill:#FFFFFF;" d="M287.246,207.002c1.215,3.382,2.931,6.796,2.61,10.489c-0.056,0.641,0.945,0.637,1,0
					c0.33-3.788-1.399-7.285-2.646-10.755C287.995,206.135,287.028,206.394,287.246,207.002L287.246,207.002z"/>
			</g>
		</g>
		<g>
			<g>
				<path style="fill:#FFFFFF;" d="M290.745,206.108c1.471,3.081,2.925,6.194,3.581,9.567c0.123,0.631,1.087,0.364,0.964-0.266
					c-0.672-3.455-2.175-6.651-3.682-9.806C291.331,205.023,290.469,205.53,290.745,206.108L290.745,206.108z"/>
			</g>
		</g>
		<g>
			<g>
				<path style="fill:#FFFFFF;" d="M294.983,204.61c2.026,2.569,3.102,5.807,3.066,9.073c-0.007,0.644,0.993,0.644,1,0
					c0.038-3.549-1.165-6.998-3.359-9.78C295.291,203.398,294.588,204.11,294.983,204.61L294.983,204.61z"/>
			</g>
		</g>
		<g>
			<g>
				<path style="fill:#FFFFFF;" d="M297.978,203.175c2.439,2.334,3.719,5.677,3.482,9.043c-0.045,0.642,0.955,0.639,1,0
					c0.254-3.612-1.16-7.248-3.775-9.75C298.22,202.023,297.511,202.729,297.978,203.175L297.978,203.175z"/>
			</g>
		</g>
		<g>
			<g>
				<path style="fill:#FFFFFF;" d="M301.477,201.139c2.495,2.455,2.532,6.168,2.534,9.432c0,0.643,1,0.645,1,0
					c-0.002-3.544-0.129-7.485-2.827-10.139C301.725,199.98,301.018,200.687,301.477,201.139L301.477,201.139z"/>
			</g>
		</g>
		<g>
			<g>
				<path style="fill:#FFFFFF;" d="M178.403,180.204c2.554-5.904,5.739-12.92,12.604-14.636c0.624-0.156,0.36-1.121-0.266-0.964
					c-7.145,1.786-10.534,8.929-13.202,15.095C177.287,180.284,178.148,180.794,178.403,180.204L178.403,180.204z"/>
			</g>
		</g>
		<g>
			<g>
				<path style="fill:#FFFFFF;" d="M177.763,179.259c2.022,2.691,5.088,4.414,8.441,4.732c0.64,0.061,0.636-0.94,0-1
					c-2.965-0.281-5.787-1.854-7.577-4.236C178.245,178.246,177.376,178.744,177.763,179.259L177.763,179.259z"/>
			</g>
		</g>
		<g>
			<g>
				<path style="fill:#FFFFFF;" d="M179.183,177.268c2.462,2.294,5.575,3.736,8.908,4.167c0.27,0.035,0.497-0.255,0.5-0.5
					c0.003-0.299-0.233-0.466-0.5-0.5c-3.055-0.395-5.95-1.777-8.201-3.874C179.42,176.123,178.711,176.828,179.183,177.268
					L179.183,177.268z"/>
			</g>
		</g>
		<g>
			<g>
				<path style="fill:#FFFFFF;" d="M181.412,172.617c-0.015,0.004-0.029,0.007-0.044,0.011c-0.159,0.038-0.316,0.186-0.349,0.349
					c-0.085,0.42,0.146,0.638,0.444,0.892c0.323,0.275,0.651,0.544,0.985,0.807c0.7,0.551,1.419,1.079,2.16,1.575
					c1.469,0.985,3.017,1.847,4.622,2.588c0.58,0.268,1.089-0.594,0.505-0.863c-1.413-0.652-2.781-1.398-4.09-2.239
					c-0.635-0.408-1.255-0.837-1.86-1.287c-0.325-0.242-0.645-0.49-0.96-0.745c-0.147-0.119-0.292-0.238-0.437-0.359
					c-0.072-0.061-0.144-0.121-0.216-0.183c-0.169-0.144-0.128-0.208-0.186,0.081c-0.116,0.116-0.233,0.233-0.349,0.349
					c0.015-0.004,0.029-0.007,0.044-0.011C182.303,173.431,182.039,172.466,181.412,172.617L181.412,172.617z"/>
			</g>
		</g>
		<g>
			<g>
				<path style="fill:#FFFFFF;" d="M184.007,170.542c2.289,2.458,5.151,4.32,8.314,5.443c0.608,0.216,0.869-0.75,0.266-0.964
					c-3.002-1.065-5.703-2.856-7.873-5.186C184.274,169.363,183.568,170.072,184.007,170.542L184.007,170.542z"/>
			</g>
		</g>
		<g>
			<g>
				<path style="fill:#FFFFFF;" d="M186.171,167.716c2.138,2.136,4.682,3.804,7.479,4.943c0.252,0.103,0.547-0.112,0.615-0.349
					c0.082-0.285-0.1-0.514-0.349-0.615c-2.632-1.072-5.028-2.679-7.037-4.686C186.422,166.554,185.714,167.261,186.171,167.716
					L186.171,167.716z"/>
			</g>
		</g>
		<g>
			<g>
				<path style="fill:#FFFFFF;" d="M190.498,165.661c2.25,1.228,3.971,3.31,4.73,5.761c0.19,0.613,1.155,0.351,0.964-0.266
					c-0.834-2.692-2.713-5.008-5.189-6.359C190.438,164.49,189.933,165.353,190.498,165.661L190.498,165.661z"/>
			</g>
		</g>
		<g>
			<g>
				<path style="fill:#FFFFFF;" d="M185.342,156.256c-1.795,0.05-3.268-1.123-4.743-1.985c-1.494-0.874-3.074-1.601-4.704-2.182
					c-3.293-1.174-6.804-1.709-10.296-1.594c-0.642,0.021-0.645,1.021,0,1c3.561-0.117,7.107,0.461,10.444,1.709
					c1.677,0.627,3.266,1.44,4.791,2.377c1.387,0.852,2.823,1.722,4.509,1.675C185.984,157.238,185.986,156.238,185.342,156.256
					L185.342,156.256z"/>
			</g>
		</g>
		<g>
			<g>
				<path style="fill:#1B2335;" d="M206.835,177.892c2.949,2.218,5.788,4.58,8.512,7.069c0.474,0.433,1.183-0.272,0.707-0.707
					c-2.787-2.547-5.697-4.956-8.715-7.225C206.825,176.641,206.326,177.509,206.835,177.892L206.835,177.892z"/>
			</g>
		</g>
		<g>
			<g>
				<path style="fill:#1B2335;" d="M210.438,190.238c1.304,0.835,2.678,1.543,4.107,2.137c0.249,0.104,0.55-0.112,0.615-0.349
					c0.079-0.288-0.099-0.511-0.349-0.615c-1.347-0.561-2.64-1.25-3.868-2.037c-0.227-0.146-0.552-0.047-0.684,0.179
					C210.117,189.795,210.21,190.092,210.438,190.238L210.438,190.238z"/>
			</g>
		</g>
		<g>
			<g>
				<path style="fill:#1B2335;" d="M205.686,194.238c0.885,0.382,1.77,0.765,2.654,1.147c0.239,0.103,0.548,0.079,0.684-0.179
					c0.114-0.216,0.077-0.573-0.179-0.684c-0.885-0.382-1.77-0.765-2.654-1.147c-0.239-0.103-0.548-0.079-0.684,0.179
					C205.393,193.77,205.429,194.127,205.686,194.238L205.686,194.238z"/>
			</g>
		</g>
		<g>
			<g>
				<path style="fill:#1B2335;" d="M199.833,197.877c1.089,0.432,2.196,0.817,3.318,1.153c0.251,0.075,0.556-0.09,0.615-0.349
					c0.061-0.269-0.081-0.535-0.349-0.615c-1.122-0.336-2.229-0.72-3.318-1.153c-0.244-0.097-0.56,0.106-0.615,0.349
					C199.418,197.551,199.572,197.774,199.833,197.877L199.833,197.877z"/>
			</g>
		</g>
		<g>
			<g>
				<path style="fill:#1B2335;" d="M196.917,198.32c2.12,1.113,3.934-0.803,5.307-2.18c1.785-1.791,3.569-3.581,5.354-5.372
					c0.455-0.456-0.252-1.164-0.707-0.707c-1.55,1.555-3.1,3.11-4.649,4.665c-0.7,0.703-1.376,1.456-2.136,2.096
					c-0.721,0.607-1.744,1.118-2.664,0.635C196.852,197.158,196.346,198.021,196.917,198.32L196.917,198.32z"/>
			</g>
		</g>
		<g>
			<g>
				<path style="fill:#1B2335;" d="M209.126,188.89c0.311-0.217,0.609-0.455,0.882-0.718c0.274-0.264,0.518-0.553,0.747-0.857
					c0.073-0.097,0.081-0.275,0.05-0.385c-0.032-0.116-0.122-0.242-0.23-0.299c-0.116-0.061-0.257-0.092-0.385-0.05
					c-0.132,0.043-0.216,0.12-0.299,0.23c-0.015,0.02-0.031,0.04-0.046,0.06c0.026-0.034,0.052-0.067,0.078-0.101
					c-0.33,0.427-0.713,0.81-1.139,1.141c0.034-0.026,0.067-0.052,0.101-0.078c-0.087,0.067-0.175,0.132-0.265,0.194
					c-0.109,0.076-0.194,0.168-0.23,0.299c-0.033,0.12-0.018,0.279,0.05,0.385C208.579,188.923,208.897,189.05,209.126,188.89
					L209.126,188.89z"/>
			</g>
		</g>
		<g>
			<g>
				<path style="fill:#1B2335;" d="M310.304,134.885c1.75,1.321,2.289,3.584,2.664,5.626c0.404,2.202,0.86,4.318,1.82,6.356
					c0.783,1.663,1.842,3.63,3.631,4.374c0.931,0.387,1.922,0.294,2.879,0.055c0.84-0.21,1.733-0.42,2.234-1.185
					c0.354-0.54-0.511-1.041-0.863-0.505c-0.258,0.393-0.783,0.491-1.207,0.609c-0.522,0.146-1.058,0.293-1.603,0.299
					c-0.948,0.009-1.705-0.461-2.333-1.135c-1.295-1.388-2.134-3.352-2.706-5.136c-1.115-3.478-0.803-7.801-4.012-10.223
					C310.295,133.634,309.796,134.502,310.304,134.885L310.304,134.885z"/>
			</g>
		</g>
		<g>
			<g>
				<path style="fill:#1B2335;" d="M314.87,130.94c1.625,0.761,3.24,1.377,4.349,2.867c0.983,1.322,1.499,2.936,1.8,4.538
					c0.696,3.702,0.157,7.581,1.621,11.136c0.242,0.587,1.21,0.33,0.964-0.266c-1.532-3.721-0.874-7.826-1.734-11.686
					c-0.356-1.597-0.958-3.173-1.974-4.47c-1.191-1.52-2.822-2.186-4.522-2.982C314.795,129.805,314.287,130.667,314.87,130.94
					L314.87,130.94z"/>
			</g>
		</g>
		<g>
			<g>
				<path style="fill:#1B2335;" d="M322.619,129.598c2.845,2.892,4.13,6.84,4.728,10.771c0.152,1.001,0.257,2.009,0.332,3.019
					c0.079,1.046,0.157,2.129-0.054,3.165c-0.194,0.954-0.623,1.84-1.49,2.341c-0.719,0.415-1.672,0.557-2.345-0.02
					c-0.486-0.417-1.197,0.287-0.707,0.707c1.135,0.973,2.731,0.805,3.894-0.046c1.473-1.077,1.8-2.994,1.776-4.708
					c-0.05-3.636-0.674-7.477-2.09-10.837c-0.798-1.893-1.894-3.632-3.337-5.1C322.874,128.431,322.167,129.138,322.619,129.598
					L322.619,129.598z"/>
			</g>
		</g>
		<g>
			<g>
				<path style="fill:#1B2335;" d="M327.752,131.028c2.089,2.378,3.073,5.503,3.441,8.601c0.196,1.65,0.272,3.365-0.326,4.945
					c-0.288,0.762-0.706,1.471-1.146,2.154c-0.25,0.389-1.11,2.05-1.723,1.72c-0.567-0.305-1.072,0.558-0.505,0.863
					c1.632,0.878,2.91-1.72,3.543-2.812c1.047-1.808,1.405-3.707,1.261-5.783c-0.259-3.735-1.326-7.536-3.838-10.395
					C328.033,129.836,327.328,130.546,327.752,131.028L327.752,131.028z"/>
			</g>
		</g>
		<g>
			<g>
				<path style="fill:#1B2335;" d="M306.675,143.93c2.156,1.272,4.694,0.987,7.058,0.632c0.266-0.04,0.416-0.377,0.349-0.615
					c-0.08-0.286-0.346-0.39-0.615-0.349c-2.088,0.313-4.382,0.593-6.288-0.532C306.625,142.739,306.121,143.603,306.675,143.93
					L306.675,143.93z"/>
			</g>
		</g>
		<g>
			<g>
				<path style="fill:#1B2335;" d="M311.81,143.45c-0.599-0.725-1.338-1.339-2.155-1.805c-0.227-0.13-0.557-0.061-0.684,0.179
					c-0.125,0.238-0.063,0.546,0.179,0.684c0.193,0.11,0.381,0.228,0.563,0.354c0.091,0.063,0.18,0.129,0.269,0.196
					c0.055,0.041-0.095-0.076-0.004-0.003c0.018,0.015,0.037,0.029,0.055,0.044c0.046,0.037,0.091,0.074,0.135,0.111
					c0.339,0.287,0.652,0.604,0.935,0.946c0.167,0.202,0.536,0.186,0.707,0C312.008,143.942,311.989,143.666,311.81,143.45
					L311.81,143.45z"/>
			</g>
		</g>
		<g>
			<g>
				<path style="fill:#FFFFFF;" d="M252.424,207.629c6.421-2.912,12.773-6.055,18.628-10.006c2.855-1.927,5.59-4.042,8.117-6.385
					c2.593-2.405,4.938-5.057,7.291-7.691c2.646-2.963,5.323-5.911,8.371-8.472c0.493-0.415-0.217-1.119-0.707-0.707
					c-5.43,4.563-9.634,10.334-14.707,15.257c-4.98,4.832-10.812,8.672-16.901,11.956c-3.462,1.867-7.015,3.56-10.597,5.185
					C251.334,207.031,251.841,207.893,252.424,207.629L252.424,207.629z"/>
			</g>
		</g>
		<g>
			<g>
				<path style="fill:#FFFFFF;" d="M273.909,202.501c7.196,0.357,14.418-1.355,20.695-4.891c0.561-0.316,0.057-1.18-0.505-0.863
					c-6.131,3.453-13.164,5.103-20.19,4.754C273.266,201.469,273.268,202.469,273.909,202.501L273.909,202.501z"/>
			</g>
		</g>
		<g>
			<g>
				<path style="fill:#FFFFFF;" d="M241.028,196.86c6.394,0.57,12.872-0.226,18.939-2.323c0.605-0.209,0.345-1.175-0.266-0.964
					c-5.993,2.071-12.357,2.85-18.673,2.287C240.387,195.803,240.391,196.804,241.028,196.86L241.028,196.86z"/>
			</g>
		</g>
		<g>
			<g>
				<path style="fill:#FFFFFF;" d="M172.882,128.59c0.096,1.944,1.277,3.785,3.044,4.627c0.244,0.116,0.54,0.067,0.684-0.179
					c0.128-0.218,0.065-0.567-0.179-0.684c-1.459-0.695-2.47-2.175-2.549-3.764c-0.013-0.27-0.22-0.5-0.5-0.5
					C173.121,128.09,172.868,128.318,172.882,128.59L172.882,128.59z"/>
			</g>
		</g>
		<g>
			<g>
				<path style="fill:#FFFFFF;" d="M170.637,132.287c0.836,0.783,1.904,1.321,3.041,1.485c0.258,0.037,0.55-0.063,0.615-0.349
					c0.054-0.237-0.072-0.575-0.349-0.615c-0.255-0.037-0.506-0.091-0.753-0.165c-0.119-0.036-0.238-0.076-0.354-0.12
					c-0.029-0.011-0.058-0.022-0.087-0.034c-0.008-0.003-0.094-0.04-0.048-0.02c0.046,0.02-0.039-0.018-0.047-0.022
					c-0.035-0.016-0.071-0.033-0.106-0.049c-0.225-0.108-0.442-0.232-0.649-0.371c-0.052-0.035-0.103-0.071-0.153-0.107
					c-0.009-0.006-0.106-0.079-0.062-0.045c0.038,0.029-0.035-0.028-0.041-0.033c-0.103-0.083-0.203-0.171-0.299-0.261
					c-0.191-0.179-0.52-0.203-0.707,0C170.458,131.774,170.433,132.096,170.637,132.287L170.637,132.287z"/>
			</g>
		</g>
		<g>
			<g>
				<path style="fill:#FFFFFF;" d="M168.539,148.255c1.872,0.897,3.517,2.18,4.843,3.778c0.173,0.208,0.529,0.178,0.707,0
					c0.206-0.206,0.173-0.499,0-0.707c-1.373-1.654-3.107-3.006-5.045-3.934c-0.243-0.117-0.54-0.067-0.684,0.179
					C168.232,147.789,168.295,148.138,168.539,148.255L168.539,148.255z"/>
			</g>
		</g>
		<g>
			<g>
				<path style="fill:#1B2335;" d="M147.689,145.126c-6.683,3.723-11.255,10.476-12.219,18.066
					c-0.292,2.295-0.234,4.606,0.127,6.889c0.1,0.634,1.064,0.365,0.964-0.266c-1.177-7.452,1.424-15.138,6.883-20.339
					c1.43-1.363,3.026-2.525,4.751-3.486C148.756,145.676,148.252,144.812,147.689,145.126L147.689,145.126z"/>
			</g>
		</g>
		<g>
			<g>
				<path style="fill:#1B2335;" d="M139.637,147.082c-4.906,3.512-7.699,9.629-7.032,15.642c0.07,0.633,1.071,0.64,1,0
					c-0.626-5.647,1.903-11.462,6.537-14.779C140.661,147.574,140.162,146.706,139.637,147.082L139.637,147.082z"/>
			</g>
		</g>
	</g>
</g>
</svg>
