<?xml version="1.0" encoding="utf-8"?>
<!-- Generator: Adobe Illustrator 27.5.0, SVG Export Plug-In . SVG Version: 6.00 Build 0)  -->
<svg version="1.1" xmlns="http://www.w3.org/2000/svg" xmlns:xlink="http://www.w3.org/1999/xlink" x="0px" y="0px"
	 viewBox="0 0 500 500" style="enable-background:new 0 0 500 500;" xml:space="preserve">
<g id="BACKGROUND">
	<rect style="fill:#FFFFFF;" width="500" height="500"/>
</g>
<g id="OBJECTS">
	<path style="fill:#EDEDF5;" d="M66.424,334.232c0,0-27.432-45.493-17.507-110.163c16.83-109.661,192.767-184.617,254.74-159.152
		c61.973,25.464,46.058,104.245,92.212,123.343s78.78,69.617,35.809,146.613L66.424,334.232z"/>
	
		<line style="fill:none;stroke:#343E54;stroke-width:0.572;stroke-miterlimit:10;" x1="16.217" y1="334.175" x2="483.783" y2="334.175"/>
	<g>
		<path style="fill:#FFBC69;" d="M376.721,293.779c0,75.379-57.045,72.64-127.414,72.64s-127.414,2.739-127.414-72.64
			c0-75.378,57.045-136.485,127.414-136.485S376.721,218.401,376.721,293.779z"/>
		<path style="opacity:0.2;fill:#FFFFFF;" d="M131.047,265.978c0,0,3.905,2.829,13.533,4.701c9.628,1.871,13.803-0.883,13.803-0.883
			s-1.212-2.102-13.331-4.321C132.932,263.255,131.637,264.831,131.047,265.978z"/>
		<path style="opacity:0.2;fill:#FFFFFF;" d="M139.871,252.471c0,0,2.109,2.985,8.292,5.369c6.183,2.384,9.551-0.06,9.551-0.06
			s-0.418-2.12-8.227-4.987C141.677,249.925,140.493,251.386,139.871,252.471z"/>
		<path style="opacity:0.2;fill:#FFFFFF;" d="M357.984,245.09c0,0-3.638-0.351-9.479,2.778c-5.842,3.129-6.188,7.276-6.188,7.276
			s1.879,1.066,9.148-2.979C358.734,248.12,358.399,246.269,357.984,245.09z"/>
		<path style="fill:#FFBC69;" d="M412.252,318.857c0,35.324-72.643,90.625-162.252,90.625S87.748,354.181,87.748,318.857
			S160.391,308.633,250,308.633S412.252,283.533,412.252,318.857z"/>
		<path style="opacity:0.2;fill:#FFFFFF;" d="M152.627,385.52c0,0,3.76-1.634,8.752-7.564c4.993-5.93,4.168-9.831,4.168-9.831
			s-2.192,0.051-8.362,7.566C151.015,383.207,151.875,384.686,152.627,385.52z"/>
		<path style="opacity:0.2;fill:#FFFFFF;" d="M144.443,374.411c0,0,3.252-0.339,7.449-3.707c4.197-3.368,3.346-6.597,3.346-6.597
			s-1.925-0.502-7.106,3.805C142.951,372.219,143.755,373.579,144.443,374.411z"/>
		<path style="opacity:0.2;fill:#402C13;" d="M381.75,322.512c0,20.574-59.297,52.784-132.444,52.784
			c-73.147,0-132.444-32.21-132.444-52.784c0-20.574,59.297-5.955,132.444-5.955C322.453,316.557,381.75,301.937,381.75,322.512z"/>
		<path style="opacity:0.2;fill:#FFFFFF;" d="M367.566,271.371c0,0-3.995-2.158-12.717-1.953
			c-8.722,0.205-11.716,4.155-11.716,4.155s1.51,1.994,12.459,1.588C366.541,274.755,367.31,272.749,367.566,271.371z"/>
		<path style="opacity:0.2;fill:#402C13;" d="M337.416,283.934c0,52.126-39.448,50.232-88.109,50.232
			c-48.662,0-88.109,1.894-88.109-50.232c0-52.126,39.448-94.382,88.109-94.382C297.968,189.552,337.416,231.808,337.416,283.934z"
			/>
	</g>
	<g>
		<path style="fill:#FF9B98;" d="M309.066,206.867c0,0,22.913,58.797,27.913,69.698l-26.922,1.511l-31.82-64.869L309.066,206.867z"
			/>
		<polygon style="fill:#3D4053;" points="309.066,206.867 320.782,236.704 294.558,246.48 278.236,213.208 		"/>
		<path style="fill:#FF9B98;" d="M183.932,206.867c0,0-22.913,58.797-27.913,69.698l26.922,1.511l31.82-64.869L183.932,206.867z"/>
		<polygon style="fill:#3D4053;" points="183.932,206.867 172.216,236.704 198.44,246.48 214.761,213.208 		"/>
		<path style="fill:#2F241E;" d="M226.441,132.646c0,0-6.244-27.366-3.677-30.132c2.567-2.766,7.296-1.495,7.296-1.495
			s-7.063-9.72,23.655-12.557c18.151-1.676,5.94,8.697,5.94,8.697s5.777,1.319,7.965,3.225c2.187,1.906-2.604,8.45-2.604,8.45
			s3.88,1.874,5.13,4.336c1.249,2.462-3.297,20.231-3.297,20.231L226.441,132.646z"/>
		<path style="fill:#F7285E;" d="M229.161,166.169c0,0-26.278,12.613-34.687,20.497c-8.409,7.883-24.948,44.408-24.948,44.408
			l32.306,8.148l-4.505,64.239h96.481l-3.335-64.239l29.749-12.011c0,0-17.44-35.976-21.119-41.757
			c-3.679-5.781-33.153-19.284-33.153-19.284H229.161z"/>
		
			<line style="fill:none;stroke:#FF618A;stroke-width:0.572;stroke-miterlimit:10;" x1="262.835" y1="229.909" x2="220.574" y2="285.546"/>
		
			<line style="fill:none;stroke:#FF618A;stroke-width:0.572;stroke-miterlimit:10;" x1="277.101" y1="244.668" x2="251.233" y2="285.32"/>
		<path style="fill:#CF7D7C;" d="M213.512,260.036c0,0,2.564-2.678,4.095-3.893s10.089-2.6,11.064-2.841
			C229.646,253.063,229.931,261.83,213.512,260.036z"/>
		<path style="fill:#CF7D7C;" d="M279.486,260.036c0,0-2.614-2.678-4.146-3.893c-1.532-1.215-10.088-2.6-11.064-2.841
			C263.301,253.063,263.067,261.83,279.486,260.036z"/>
		<path style="fill:#FF9B98;" d="M234.689,142.91c0,0-1.445,15.094-5.527,23.259l17.513,26.202l19.276-26.202
			c0,0-6.767-16.061-7.412-23.259H234.689z"/>
		<path style="fill:#3D4053;" d="M234.689,142.91c0,0-0.653,6.295-2.078,12.729c0,0,7.7,8.349,13.888,8.349
			c6.188,0,15.078-9.338,15.078-9.338s-2.771-7.933-3.038-11.74H234.689z"/>
		<path style="fill:#FF9B98;" d="M230.123,126.068c0,0-7.735-3.223-8.219,3.545c-0.483,6.768,3.545,9.508,9.669,7.09
			L230.123,126.068z"/>
		<path style="fill:none;stroke:#0D0000;stroke-width:0.5493;stroke-miterlimit:10;" d="M224.054,131.068c0,0,1.229-1.9,2.403-1.565
			c1.174,0.335,3.409,2.794,4.191,4.527"/>
		<path style="fill:#FF9B98;" d="M262.313,126.204c0,0,7.735-3.223,8.219,3.545c0.483,6.768-3.545,9.508-9.669,7.09L262.313,126.204
			z"/>
		<path style="fill:none;stroke:#0D0000;stroke-width:0.5493;stroke-miterlimit:10;" d="M269.247,131.068c0,0-1.229-1.9-2.403-1.565
			c-1.173,0.335-3.409,2.794-4.191,4.527"/>
		<path style="fill:#FF9B98;" d="M263.198,114.563c-2.036-6.109-8.436-6.691-16.699-6.691c-8.263,0-14.663,0.582-16.699,6.691
			c-2.036,6.109,0.757,24.581,1.921,29.235c1.164,4.654,8.381,14.087,14.954,14.087c6.573,0,13.79-9.433,14.954-14.087
			C262.791,139.144,265.234,120.672,263.198,114.563z"/>
		<g>
			<g>
				<g>
					<g>
						<g>
							<path style="fill:#0D0000;" d="M241.834,130.441c0.003,1.216-0.532,2.203-1.195,2.205c-0.663,0.002-1.203-0.983-1.206-2.199
								c-0.003-1.216,0.532-2.203,1.195-2.205C241.29,128.241,241.831,129.225,241.834,130.441z"/>
						</g>
					</g>
				</g>
			</g>
		</g>
		<path style="fill:#2F241E;" d="M234.491,123.275c0,0,1.558-2.402,5.13-2.143c3.571,0.26,4.091,1.688,3.766,2.143
			c-0.534,0.747-2.244,0.574-3.636,0C237.672,122.42,234.426,124.119,234.491,123.275z"/>
		<path style="fill:#E8707C;" d="M232.194,138.158c-0.067-2.097,6.488-2.354,6.54,0
			C238.787,140.513,232.299,141.418,232.194,138.158z"/>
		<g>
			<g>
				<g>
					<g>
						<g>
							<path style="fill:#0D0000;" d="M251.313,130.441c-0.003,1.216,0.532,2.203,1.195,2.205c0.663,0.002,1.203-0.983,1.206-2.199
								c0.003-1.216-0.532-2.203-1.195-2.205C251.856,128.241,251.316,129.225,251.313,130.441z"/>
						</g>
					</g>
				</g>
			</g>
		</g>
		<path style="fill:#2F241E;" d="M258.507,123.275c0,0-1.558-2.402-5.13-2.143c-3.571,0.26-4.091,1.688-3.766,2.143
			c0.534,0.747,2.244,0.574,3.636,0C255.325,122.42,258.572,124.119,258.507,123.275z"/>
		<path style="fill:#E8707C;" d="M260.804,138.158c0.067-2.097-6.488-2.354-6.54,0C254.211,140.513,260.699,141.418,260.804,138.158
			z"/>
		<path style="fill:none;stroke:#0D0000;stroke-width:0.5493;stroke-miterlimit:10;" d="M247.355,130.444
			c0,0-1.367,5.588-3.206,6.557c-2.105,1.109-0.345,3.129,3.206,2.98"/>
		<path style="fill:#F4F4F4;" d="M238.735,144.678c0,0,9.17-1.68,15.528,0c0,0-2.939,9.236-8.046,8.759
			C241.111,152.961,238.735,144.678,238.735,144.678z"/>
		<path style="fill:#2F241E;" d="M229.077,106.928c0,0,5.413,14.184,25.415,9.809c2.532-0.554-1.979-3.838-1.979-3.838
			s5.03,1.892,8.349,1.296c0,0-2.355,8.247-1.327,10.642c0.652,1.521,4.346,0.88,4.346,0.88s3.089-20.891-5.374-21.887
			C232.193,100.734,229.077,106.928,229.077,106.928z"/>
		<g>
			<path style="fill:#202B2B;" d="M231.456,255.938c-0.042-0.854-1.609-1.472-3.5-1.38c-1.891,0.092-3.391,0.859-3.349,1.714
				c0.042,0.854,1.609,1.472,3.5,1.38C229.998,257.56,231.498,256.793,231.456,255.938z"/>
			<path style="fill:#202B2B;" d="M258.6,255.938c0.042-0.854,1.609-1.472,3.5-1.38c1.891,0.092,3.391,0.859,3.349,1.714
				c-0.042,0.854-1.608,1.472-3.5,1.38C260.058,257.56,258.558,256.793,258.6,255.938z"/>
			<path style="fill:#2E3E3D;" d="M278.318,273.567l-6.762-13.315c-1.067-2.102-3.143-3.496-5.493-3.686
				c-5.591-0.451-12.968-1.216-21.035-1.216s-15.444,0.765-21.035,1.216c-2.35,0.19-4.426,1.584-5.493,3.686l-6.762,13.315
				c-1.358,2.673-0.771,6.033,1.61,7.855c2.786,2.131,6.692,1.508,8.699-1.241l7.692-10.535c7.942,2.542,15.289,2.621,15.289,2.621
				s7.346-0.079,15.289-2.621l7.692,10.535c2.007,2.749,5.913,3.372,8.699,1.241C279.089,279.6,279.675,276.24,278.318,273.567z"/>
			<path style="fill:#0AA799;" d="M245.028,264.087h-8.865c-0.79,0-1.431,0.64-1.431,1.431l0,0c0,0.662,0.454,1.238,1.098,1.392l0,0
				c6.046,1.444,12.348,1.444,18.394,0l0,0c0.644-0.154,1.098-0.729,1.098-1.392l0,0c0-0.79-0.64-1.431-1.431-1.431H245.028z"/>
			<path style="fill:#3E5452;" d="M229.263,261.863h-5.083c-1.005,0-1.827-0.822-1.827-1.827l0,0c0-1.005,0.822-1.827,1.827-1.827
				h5.083c1.005,0,1.827,0.822,1.827,1.827l0,0C231.09,261.041,230.268,261.863,229.263,261.863z"/>
			<path style="fill:#3E5452;" d="M265.876,261.863h-5.083c-1.005,0-1.827-0.822-1.827-1.827l0,0c0-1.005,0.822-1.827,1.827-1.827
				h5.083c1.005,0,1.827,0.822,1.827,1.827l0,0C267.703,261.041,266.881,261.863,265.876,261.863z"/>
			<path style="fill:#3E5452;" d="M230.22,265.437h-6.996c-0.479,0-0.87-0.392-0.87-0.87v-0.166c0-0.479,0.391-0.87,0.87-0.87h6.996
				c0.479,0,0.87,0.391,0.87,0.87v0.166C231.09,265.046,230.698,265.437,230.22,265.437z"/>
			<path style="fill:#3E5452;" d="M266.833,265.437h-6.996c-0.479,0-0.87-0.392-0.87-0.87v-0.166c0-0.479,0.392-0.87,0.87-0.87
				h6.996c0.479,0,0.87,0.391,0.87,0.87v0.166C267.703,265.046,267.311,265.437,266.833,265.437z"/>
			<path style="fill:none;stroke:#394D4B;stroke-width:0.2747;stroke-miterlimit:10;" d="M235.261,255.679v4.328
				c0,1.025,0.831,1.857,1.856,1.857h17.193c1.025,0,1.856-0.831,1.856-1.857v-4.238"/>
		</g>
		<path style="fill:#FF9B98;" d="M225.069,257.687c-2.316-0.32-8.899-0.525-10.101,0.538c-1.203,1.064-5.42,7.811-5.42,7.811
			s-5.877,5.845-33.516,2.271c-20.636-2.668-22.217,12.28-20.729,15.316c1.468,2.995,7.148,6.671,12.39,6.433
			c5.242-0.238,45.328-13.391,45.328-13.391c4.815-1.055,4.046-5.601,4.046-5.601s8.252-1.004,8.112-1.765
			c-0.14-0.762-1.759-3.082-1.759-3.082s1.046-0.244,2.199-0.949c1.153-0.705-1.706-3.312-1.706-3.312s8.172,0.505,8.28-2.021
			C232.257,258.421,225.069,257.687,225.069,257.687"/>
		<path style="fill:none;stroke:#0D0000;stroke-width:0.5493;stroke-miterlimit:10;" d="M187.991,269.404
			c0,0-8.684-2.157-15.775-1.401"/>
		<path style="fill:#FF9B98;" d="M267.929,257.687c2.316-0.32,8.899-0.525,10.101,0.538c1.203,1.064,5.42,7.811,5.42,7.811
			s5.877,5.845,33.516,2.271c20.636-2.668,22.217,12.28,20.729,15.316c-1.468,2.995-7.148,6.671-12.39,6.433
			c-5.242-0.238-45.328-13.391-45.328-13.391c-4.815-1.055-4.046-5.601-4.046-5.601s-8.252-1.004-8.112-1.765
			c0.14-0.762,1.759-3.082,1.759-3.082s-1.046-0.244-2.199-0.949c-1.153-0.705,1.706-3.312,1.706-3.312s-8.172,0.505-8.28-2.021
			C260.74,258.421,267.929,257.687,267.929,257.687"/>
		<path style="fill:none;stroke:#0D0000;stroke-width:0.5493;stroke-miterlimit:10;" d="M305.006,269.404
			c0,0,8.684-2.157,15.775-1.401"/>
		<path style="fill:#343E54;" d="M197.328,303.46c0,0-75.875-18.53-85.406-13.392s83.508,75.665,129.912,75.665
			c46.404,0,157.204-61.211,149.502-74.551c-4.765-8.253-97.527,12.278-97.527,12.278H197.328z"/>
		<path style="fill:none;stroke:#42506B;stroke-width:0.572;stroke-miterlimit:10;" d="M197.328,303.46c0,0,56.66,9.733,96.481,0"/>
		
			<line style="fill:none;stroke:#42506B;stroke-width:0.572;stroke-miterlimit:10;" x1="247.556" y1="303.46" x2="247.556" y2="358.265"/>
		<path style="fill:none;stroke:#42506B;stroke-width:0.572;stroke-miterlimit:10;" d="M135.802,313.516
			c0,0,95.422,49.358,225.542-1.996"/>
		<g>
			<path style="fill:#FDFFFF;" d="M249.934,358.744c0,0,1.354-3.516,10.87-3.507c2.141,0.002,29.774,7.117,38.652,9.225
				c10.701,2.541,17.69,19.061-7.725,20.014c-25.415,0.953-35.625-6.289-41.798-9.181
				C243.762,372.404,249.934,358.744,249.934,358.744z"/>
			<path style="fill:#FF9B98;" d="M211.488,348.358c8.296,2.746,26.821,7.147,43.053,11.217c6.678,1.674,12.509,9.977,9.721,14.554
				c-2.789,4.577-38.643-2.3-57.598-10.83L211.488,348.358z"/>
			<path style="fill:#DCDEDE;" d="M259.141,361.337l28.815,4.54c0,0-4.924,8.447-1.215,14.098l-29.88-4.408L259.141,361.337z"/>
			<path style="fill:#DCDEDE;" d="M259.141,361.337c0,0-6.224-5.462-14.272-5.464c-5.236-0.001-7.107,17.577-3.613,19.718
				c1.084,0.664,15.605-0.025,15.605-0.025L259.141,361.337z"/>
			
				<line style="fill:none;stroke:#0D0000;stroke-width:0.5493;stroke-linecap:round;stroke-linejoin:round;stroke-miterlimit:10;" x1="261.375" y1="360.429" x2="266.359" y2="377.895"/>
			
				<line style="fill:none;stroke:#0D0000;stroke-width:0.5493;stroke-linecap:round;stroke-linejoin:round;stroke-miterlimit:10;" x1="269.205" y1="361.609" x2="258.252" y2="376.627"/>
			
				<line style="fill:none;stroke:#0D0000;stroke-width:0.5493;stroke-linecap:round;stroke-linejoin:round;stroke-miterlimit:10;" x1="269.205" y1="361.609" x2="275.217" y2="378.996"/>
			
				<line style="fill:none;stroke:#0D0000;stroke-width:0.5493;stroke-linecap:round;stroke-linejoin:round;stroke-miterlimit:10;" x1="277.774" y1="363.618" x2="266.359" y2="377.895"/>
			<polygon style="fill:#CDCFCF;" points="246.773,361.302 245.483,369.418 251.896,370.164 253.507,362.713 			"/>
		</g>
		<g>
			<path style="fill:#434F6B;" d="M111.922,289.75c-19.428,0.293-11.437,28.965,15.249,48.979
				c11.836,8.877,87.59,33.357,87.59,33.357l10.292-23.728C225.053,348.358,136.701,289.377,111.922,289.75z"/>
			<path style="fill:#4B5878;" d="M226.721,345.891l-13.21,29.989c0,0-9.664-2.112-8.949-2.589
				c0.715-0.477,12.628-32.642,12.628-32.642L226.721,345.891z"/>
			<path style="opacity:0.05;fill:#FFFFFF;" d="M110.429,310.418c0,0,2.506-0.849,6.4-4.563c3.895-3.714,3.988-6.457,3.988-6.457
				s-1.325-0.125-6.167,4.593S110.103,309.79,110.429,310.418z"/>
			<path style="opacity:0.05;fill:#FFFFFF;" d="M107.272,302.625c0,0,1.983-0.296,4.678-2.738c2.694-2.441,2.328-4.695,2.328-4.695
				s-1.142-0.318-4.475,2.8C106.471,301.112,106.894,302.053,107.272,302.625z"/>
		</g>
		<g>
			<path style="fill:#FDFFFF;" d="M250.065,358.744c0,0-1.354-3.516-10.87-3.507c-2.141,0.002-29.774,7.117-38.652,9.225
				c-10.701,2.541-17.69,19.061,7.725,20.014c25.415,0.953,35.625-6.289,41.798-9.181
				C256.238,372.404,250.065,358.744,250.065,358.744z"/>
			<path style="fill:#FF9B98;" d="M288.512,348.358c-8.296,2.746-26.821,7.147-43.053,11.217
				c-6.678,1.674-12.509,9.977-9.721,14.554c2.789,4.577,38.643-2.3,57.598-10.83L288.512,348.358z"/>
			<path style="fill:#DCDEDE;" d="M240.859,361.337l-28.815,4.54c0,0,4.924,8.447,1.215,14.098l29.88-4.408L240.859,361.337z"/>
			<path style="fill:#DCDEDE;" d="M240.859,361.337c0,0,6.224-5.462,14.272-5.464c5.236-0.001,7.107,17.577,3.613,19.718
				c-1.084,0.664-15.605-0.025-15.605-0.025L240.859,361.337z"/>
			
				<line style="fill:none;stroke:#0D0000;stroke-width:0.5493;stroke-linecap:round;stroke-linejoin:round;stroke-miterlimit:10;" x1="238.625" y1="360.429" x2="233.641" y2="377.895"/>
			
				<line style="fill:none;stroke:#0D0000;stroke-width:0.5493;stroke-linecap:round;stroke-linejoin:round;stroke-miterlimit:10;" x1="230.795" y1="361.609" x2="241.748" y2="376.627"/>
			
				<line style="fill:none;stroke:#0D0000;stroke-width:0.5493;stroke-linecap:round;stroke-linejoin:round;stroke-miterlimit:10;" x1="230.795" y1="361.609" x2="224.783" y2="378.996"/>
			
				<line style="fill:none;stroke:#0D0000;stroke-width:0.5493;stroke-linecap:round;stroke-linejoin:round;stroke-miterlimit:10;" x1="222.226" y1="363.618" x2="233.641" y2="377.895"/>
			<polygon style="fill:#CDCFCF;" points="253.227,361.302 254.517,369.418 248.104,370.164 246.492,362.713 			"/>
		</g>
		<g>
			<path style="fill:#434F6B;" d="M388.078,289.75c19.428,0.293,11.437,28.965-15.249,48.979
				c-11.836,8.877-87.59,33.357-87.59,33.357l-10.292-23.728C274.947,348.358,363.298,289.377,388.078,289.75z"/>
			<path style="fill:#4B5878;" d="M273.279,345.891l13.21,29.989c0,0,9.664-2.112,8.949-2.589
				c-0.715-0.477-12.628-32.642-12.628-32.642L273.279,345.891z"/>
			<path style="opacity:0.05;fill:#FFFFFF;" d="M389.571,310.418c0,0-2.506-0.849-6.401-4.563c-3.895-3.714-3.987-6.457-3.987-6.457
				s1.325-0.125,6.167,4.593S389.897,309.79,389.571,310.418z"/>
			<path style="opacity:0.05;fill:#FFFFFF;" d="M392.728,302.625c0,0-1.983-0.296-4.678-2.738c-2.694-2.441-2.328-4.695-2.328-4.695
				s1.142-0.318,4.475,2.8C393.529,301.112,393.105,302.053,392.728,302.625z"/>
		</g>
		<polygon style="fill:#FFFFFF;" points="201.833,239.221 202.811,229.265 170.715,220.807 167.245,231 		"/>
		<polygon style="fill:#FFFFFF;" points="290.465,239.221 289.252,229.327 321.583,220.807 325.052,231 		"/>
		
			<line style="fill:none;stroke:#FF618A;stroke-width:0.5493;stroke-miterlimit:10;" x1="201.833" y1="239.221" x2="206.427" y2="199.12"/>
		
			<line style="fill:none;stroke:#FF618A;stroke-width:0.5493;stroke-miterlimit:10;" x1="290.441" y1="239.221" x2="285.622" y2="199.12"/>
		<polygon style="fill:#C9214D;" points="229.161,166.169 246.674,192.37 265.95,166.169 271.697,168.892 246.402,203.892 
			222.353,169.568 		"/>
		<path style="fill:#FFFFFF;" d="M229.161,166.169c0,0,17.084,12.373,36.789,0l-19.276,26.202L229.161,166.169z"/>
		
			<line style="fill:none;stroke:#FF618A;stroke-width:0.5493;stroke-miterlimit:10;" x1="197.708" y1="298.034" x2="293.526" y2="298.034"/>
	</g>
	<g>
		<path style="fill:#5B5B5B;" d="M394.245,492.707h-288.49v-94.443c0-8.237,6.677-14.914,14.914-14.914h258.662
			c8.237,0,14.914,6.677,14.914,14.914V492.707z"/>
		<path style="fill:#4E4E4E;" d="M394.245,500h-288.49v-94.443c0-8.237,6.677-14.914,14.914-14.914h258.662
			c8.237,0,14.914,6.677,14.914,14.914V500z"/>
		<path style="fill:#474747;" d="M305.418,462.59H194.582c-6.6,0-12,5.4-12,12V500h134.837v-25.41
			C317.418,467.99,312.018,462.59,305.418,462.59z"/>
		<g>
			<path style="fill:#404040;" d="M304.479,500h-36.476v-15.978c0-3.425,2.802-6.227,6.226-6.227h24.023
				c3.425,0,6.227,2.802,6.227,6.227V500z"/>
			<path style="fill:#404040;" d="M223.713,479.53h-27.325c-0.477,0-0.868-0.39-0.868-0.867v0c0-0.477,0.39-0.867,0.868-0.867
				h27.325c0.477,0,0.868,0.39,0.868,0.867v0C224.581,479.14,224.19,479.53,223.713,479.53z"/>
			<path style="fill:#404040;" d="M259.955,479.53H232.63c-0.477,0-0.868-0.39-0.868-0.867v0c0-0.477,0.39-0.867,0.868-0.867h27.325
				c0.477,0,0.867,0.39,0.867,0.867v0C260.822,479.14,260.432,479.53,259.955,479.53z"/>
			<path style="fill:#404040;" d="M223.713,485.602h-27.325c-0.477,0-0.868-0.39-0.868-0.867l0,0c0-0.477,0.39-0.867,0.868-0.867
				h27.325c0.477,0,0.868,0.39,0.868,0.867l0,0C224.581,485.212,224.19,485.602,223.713,485.602z"/>
			<path style="fill:#404040;" d="M259.955,485.602H232.63c-0.477,0-0.868-0.39-0.868-0.867l0,0c0-0.477,0.39-0.867,0.868-0.867
				h27.325c0.477,0,0.867,0.39,0.867,0.867l0,0C260.822,485.212,260.432,485.602,259.955,485.602z"/>
			<path style="fill:#404040;" d="M223.713,491.675h-27.325c-0.477,0-0.868-0.39-0.868-0.868l0,0c0-0.477,0.39-0.867,0.868-0.867
				h27.325c0.477,0,0.868,0.39,0.868,0.867l0,0C224.581,491.284,224.19,491.675,223.713,491.675z"/>
			<path style="fill:#404040;" d="M259.955,491.675H232.63c-0.477,0-0.868-0.39-0.868-0.868l0,0c0-0.477,0.39-0.867,0.868-0.867
				h27.325c0.477,0,0.867,0.39,0.867,0.867l0,0C260.822,491.284,260.432,491.675,259.955,491.675z"/>
			<path style="fill:#404040;" d="M223.713,497.747h-27.325c-0.477,0-0.868-0.39-0.868-0.868l0,0c0-0.477,0.39-0.867,0.868-0.867
				h27.325c0.477,0,0.868,0.39,0.868,0.867l0,0C224.581,497.357,224.19,497.747,223.713,497.747z"/>
			<path style="fill:#404040;" d="M259.955,497.747H232.63c-0.477,0-0.868-0.39-0.868-0.868l0,0c0-0.477,0.39-0.867,0.868-0.867
				h27.325c0.477,0,0.867,0.39,0.867,0.867l0,0C260.822,497.357,260.432,497.747,259.955,497.747z"/>
		</g>
		<path style="fill:none;stroke:#F7285E;stroke-width:2;stroke-miterlimit:10;" d="M281.056,488.639
			c0,1.677-1.359,3.036-3.036,3.036c-1.677,0-3.036-1.359-3.036-3.036c0-1.677,1.359-3.036,3.036-3.036
			C279.697,485.602,281.056,486.962,281.056,488.639z"/>
		<path style="fill:none;stroke:#FFBE09;stroke-width:2;stroke-miterlimit:10;" d="M299.73,488.639c0,1.677-1.359,3.036-3.036,3.036
			s-3.036-1.359-3.036-3.036c0-1.677,1.359-3.036,3.036-3.036S299.73,486.962,299.73,488.639z"/>
		<path style="fill:#5A5D5A;" d="M111.395,393.89c-3.433,2.732-5.64,6.939-5.64,11.667V500h30.986v-80.765L111.395,393.89z"/>
		<path style="fill:#5A5D5A;" d="M388.604,393.89c3.433,2.732,5.64,6.939,5.64,11.667V500h-30.986v-80.765L388.604,393.89z"/>
	</g>
	<rect x="131.741" y="419.235" style="fill:#5A5D5A;" width="236.518" height="2.174"/>
	
		<ellipse transform="matrix(0.7071 -0.7071 0.7071 0.7071 -16.521 344.8558)" style="fill:none;stroke:#AAA7B2;stroke-linecap:round;stroke-linejoin:round;stroke-miterlimit:10;" cx="408.017" cy="192.37" rx="19.222" ry="19.222"/>
	<polygon style="fill:none;stroke:#AAA7B2;stroke-linecap:round;stroke-linejoin:round;stroke-miterlimit:10;" points="
		91.259,160.139 77.441,140.714 101.173,138.46 124.904,136.206 114.99,157.885 105.076,179.564 	"/>
	<polygon style="fill:#AAA7B2;" points="420.594,267.846 408.017,264.289 417.387,255.175 426.757,246.062 429.964,258.733 
		433.172,271.404 	"/>
	<polygon style="fill:#EDEDF5;" points="71.918,99.286 66.566,95.536 72.49,92.776 78.414,90.016 77.842,96.526 77.27,103.037 	"/>
	<polygon style="fill:#FFFFFF;" points="328.188,138.02 331.952,143.814 325.052,144.176 318.153,144.539 321.289,138.383 
		324.424,132.226 	"/>
	
		<rect x="154.193" y="78.504" transform="matrix(0.3185 -0.9479 0.9479 0.3185 25.8602 229.0245)" style="fill:none;stroke:#FFFFFF;stroke-linecap:round;stroke-linejoin:round;stroke-miterlimit:10;" width="36.046" height="36.046"/>
	
		<rect x="27.196" y="277.161" transform="matrix(0.3185 -0.9479 0.9479 0.3185 -248.9926 244.019)" style="fill:none;stroke:#AAA7B2;stroke-linecap:round;stroke-linejoin:round;stroke-miterlimit:10;" width="36.046" height="36.046"/>
	
		<rect x="70.536" y="201.28" transform="matrix(-0.132 -0.9913 0.9913 -0.132 -118.9658 308.4707)" style="fill:#FFFFFF;" width="10.088" height="10.088"/>
	<g>
		
			<line style="fill:none;stroke:#EDEDF5;stroke-linecap:round;stroke-linejoin:round;stroke-miterlimit:10;" x1="357.408" y1="96.526" x2="373.475" y2="108.229"/>
		
			<line style="fill:none;stroke:#EDEDF5;stroke-linecap:round;stroke-linejoin:round;stroke-miterlimit:10;" x1="371.293" y1="94.344" x2="359.59" y2="110.412"/>
	</g>
	<g>
		
			<line style="fill:none;stroke:#FFFFFF;stroke-linecap:round;stroke-linejoin:round;stroke-miterlimit:10;" x1="78.687" y1="237.244" x2="96.81" y2="252.912"/>
		
			<line style="fill:none;stroke:#FFFFFF;stroke-linecap:round;stroke-linejoin:round;stroke-miterlimit:10;" x1="95.582" y1="236.017" x2="79.914" y2="254.139"/>
	</g>
	<circle style="fill:#FFFFFF;" cx="363.259" cy="197.402" r="5.387"/>
	<path style="fill:none;stroke:#FFFFFF;stroke-miterlimit:10;" d="M176.025,157.097c0,2.539-2.058,4.598-4.598,4.598
		c-2.539,0-4.598-2.059-4.598-4.598c0-2.539,2.059-4.598,4.598-4.598C173.967,152.499,176.025,154.557,176.025,157.097z"/>
</g>
</svg>
