<?xml version="1.0" encoding="utf-8"?>
<!-- Generator: Adobe Illustrator 27.5.0, SVG Export Plug-In . SVG Version: 6.00 Build 0)  -->
<svg version="1.1" xmlns="http://www.w3.org/2000/svg" xmlns:xlink="http://www.w3.org/1999/xlink" x="0px" y="0px"
	 viewBox="0 0 500 500" style="enable-background:new 0 0 500 500;" xml:space="preserve">
<g id="BACKGROUND">
</g>
<g id="OBJECTS">
	<g>
		<rect style="fill:#D1FAE2;" width="500" height="500"/>
		<path style="fill:#FFFFFF;" d="M500,249.397c-4.219-1.106-8.917-0.998-13.057-0.903c-13.102,0.302-26.123,0.03-38.756-3.897
			c-19.021-5.914-36.482-21.46-38.347-41.292c-0.92-9.78,1.903-20.026-1.409-29.275c-4.978-13.897-21.649-19.734-36.403-20.232
			c-19.433-0.656-39.029,4.926-55.199,15.725c-18.302,12.223-31.645,30.383-47.302,45.849
			c-15.657,15.466-35.799,28.983-57.769,27.689c-21.384-1.259-39.563-16.177-60.477-20.814c-19.351-4.291-40.587,0.98-55.686,13.821
			c-15.099,12.841-23.711,32.955-22.583,52.744c58.577,12.414,112.206,41.816,169.94,57.697
			c83.227,22.893,171.403,16.824,257.047,4.804V249.397z"/>
		<path style="fill:#B7DBC8;" d="M229.423,362.157c19.153,10.666,41.013,15.365,62.675,18.733
			C361.042,391.612,431.81,390.3,500,404.369v-59.811c-2.609-0.977-5.25-1.862-7.904-2.635c-16.925-4.93-34.635-6.353-52.049-9.088
			c-17.415-2.735-35.048-6.982-49.706-16.775c-8.64-5.772-16.308-13.484-26.238-16.543c-13.831-4.261-28.529,1.435-42.047,6.607
			c-25.245,9.659-51.354,17.814-78.265,21.121c-18.135,2.229-37.469-1.29-41.273,11.802
			C209.45,348.149,218.387,356.012,229.423,362.157z"/>
		<g>
			<path style="fill:#9AB7A7;" d="M500,364.235c-71.191-4.876-144.464,3.402-211.72-19.911
				c-50.491-17.502-93.245-51.432-137.785-80.959c-12.659-8.392-25.911-16.62-40.808-19.578
				c-32.301-6.412-63.798,13.026-89.292,33.871C13.577,283.232,6.858,288.996,0,294.578V500h500V364.235z"/>
			<g>
				<path style="fill:#ADC6B9;" d="M414.151,376.388c-83.36,0.597-166.795-10.284-247.213-32.241
					c-4.783-1.306-9.801-2.659-14.631-1.54c-4.83,1.118-9.265,5.647-8.418,10.532c0.589,3.4,3.405,5.885,5.409,8.694
					c2.005,2.809,3.064,7.14,0.461,9.406c-1.152,1.003-2.74,1.31-4.256,1.496c-20.548,2.52-41.718-10.277-61.4-3.858
					c-2.783,0.908-5.526,2.249-7.424,4.478c-5.091,5.983-2.13,15.122,1.464,22.108c9.417,18.308,23.365,43.202,42.206,52.735
					c23.243,11.76,45.729,23.901,68.609,36.62c10.52,5.848,21.491,10.953,32.777,15.183h140.541
					c11.984-5.128,23.324-11.695,33.623-19.726c7.601-5.927,15.158-13.782,15.143-23.421c-0.017-10.581-9.054-18.744-17.755-24.764
					c-3.847-2.662-8.04-5.53-9.484-9.98c-1.118-3.445-0.324-7.281,1.347-10.494c9.54-18.346,39.375-13.964,52.812-29.682
					C431.677,376.445,422.494,376.328,414.151,376.388z"/>
				<g>
					<path style="fill:#96AA9E;" d="M116.813,446.195c-3.561-26.108-7.754-52.165-10.169-78.272
						c-2.188-0.332-4.368-0.586-6.538-0.732c0.473,3.607,0.921,7.219,1.296,10.829c2.159,20.785,4.698,41.529,7.598,62.224
						C111.497,442.487,114.1,444.498,116.813,446.195z"/>
					<path style="fill:#96AA9E;" d="M157.69,342.252c-1.806-0.132-3.607-0.057-5.383,0.355c-4.83,1.118-9.265,5.647-8.418,10.532
						c0.589,3.4,3.405,5.885,5.409,8.694c1.892,2.65,2.938,6.655,0.863,9.001c0.431,2.032,0.523,4.164,0.604,6.25
						c1.167,30.146,3.261,60.256,6.274,90.274c3.287,1.765,6.572,3.541,9.857,5.327C161.638,429.399,158.57,385.848,157.69,342.252z
						"/>
					<path style="fill:#96AA9E;" d="M184.295,472.685c0.046-26.676-5.265-98.794-5.769-125.465
						c-3.802-0.984-7.599-1.986-11.388-3.02C168.946,372.145,178.054,445.387,184.295,472.685z"/>
					<path style="fill:#96AA9E;" d="M285.135,500c-3.526-45.753-11.482-91.159-23.736-135.382
						c-18.535-3.003-36.978-6.572-55.293-10.71c0.928,38.422,3.504,76.803,7.734,115.003c1.095,9.885,2.303,19.774,3.974,29.575
						c1.303,0.515,2.61,1.022,3.923,1.513H285.135z"/>
					<path style="fill:#96AA9E;" d="M385.624,487.565c-5.818-37.337-11.635-74.675-17.453-112.013
						c-6.316-0.274-12.628-0.617-18.937-1.022c-5.113,41.661-8.526,83.53-10.221,125.47h23.264
						C370.4,496.524,378.217,492.371,385.624,487.565z"/>
					<path style="fill:#96AA9E;" d="M382.979,376.077c0.855,11.618,1.71,23.237,2.565,34.855
						c4.308-7.61,12.239-11.167,20.936-14.005c-0.239-6.838-0.412-13.677-0.522-20.518
						C398.296,376.394,390.636,376.284,382.979,376.077z"/>
					<path style="fill:#96AA9E;" d="M410.591,460.873c-0.35-3.732-0.682-7.466-0.994-11.202c-2.89-7.18-9.691-13.004-16.31-17.583
						c-2.288-1.583-4.693-3.242-6.574-5.259c1.402,19.047,2.803,38.093,4.205,57.14c1.683-1.199,3.35-2.422,4.982-3.695
						C402.414,475.194,408.88,468.694,410.591,460.873z"/>
				</g>
			</g>
			<polygon style="fill:#7CA588;" points="141.5,262.625 140.247,274.608 143.125,278.241 			"/>
			<polygon style="fill:#7CA588;" points="148.452,311.713 147.199,323.697 150.077,327.329 			"/>
			<polygon style="fill:#7CA588;" points="85.026,332.365 83.773,344.349 86.651,347.981 			"/>
			<polygon style="fill:#7CA588;" points="156.961,261.773 155.708,273.756 158.586,277.389 			"/>
			<polygon style="fill:#7CA588;" points="96.586,284.35 95.333,296.333 98.211,299.966 			"/>
			<polygon style="fill:#7CA588;" points="64.81,248.164 63.557,260.148 66.435,263.78 			"/>
			<polygon style="fill:#7CA588;" points="11.975,281.608 10.722,293.591 13.6,297.224 			"/>
			<polygon style="fill:#7CA588;" points="105.786,238.665 104.533,250.648 107.411,254.281 			"/>
			<polygon style="fill:#7CA588;" points="56.035,260.237 54.308,276.746 58.273,281.75 			"/>
			<polygon style="fill:#7CA588;" points="115.253,278.241 114,290.225 116.878,293.857 			"/>
			<polygon style="fill:#7CA588;" points="99.074,261.773 97.821,273.756 100.699,277.389 			"/>
			<polygon style="fill:#7CA588;" points="170.919,295.373 169.666,307.357 172.544,310.989 			"/>
		</g>
		<g>
			<polygon style="fill:#597D68;" points="86.465,385.663 85.212,397.646 88.09,401.279 			"/>
			<polygon style="fill:#597D68;" points="122.631,419.772 121.378,431.756 124.256,435.388 			"/>
			<path style="fill:#7CA588;" d="M500,420.467c-5.246-0.948-10.656-1.198-15.87-1.234c-95.965-0.671-190.699,35.519-286.561,29.887
				c-24.437-1.436-49.256-5.776-71.258-19.259c-22.933-14.053-41.573-37.255-63.813-52.98C45.856,365.114,22.371,354.603,0,353.094
				V500h500V420.467z"/>
			<g>
				<path style="fill:#B2C49D;" d="M366.419,492.544c-1.246-5.795-6.065-10.134-11.089-13.28
					c-21.989-13.77-49.895-11.747-75.815-10.615c-51.87,2.266-105.57-1.349-152.211-24.158
					c-12.613-6.168-24.581-13.682-37.583-18.981c-3.639-1.483-8.682-2.379-10.756,0.958c-2.415,3.885,2.058,8.346,6,10.667
					c18.062,10.636,37.084,19.643,56.759,26.874c3.16,1.161,6.808,2.798,7.457,6.101c1.101,5.603-6.829,8.067-12.536,7.867
					c-35.918-1.257-71.839-10.99-107.391-5.725c-4.172,0.618-9.043,2.052-10.317,6.073c-1.263,3.987,1.835,7.946,4.854,10.841
					c4.112,3.943,8.53,7.555,13.183,10.833h329.091C366.773,497.588,366.965,495.085,366.419,492.544z"/>
				<path style="fill:#A1B78B;" d="M136.645,477.977c-34.924-1.222-69.85-10.454-104.439-6.124
					c2.987,9.469,6.232,18.855,9.729,28.147h104.928c-0.07-8.521,0.28-17.043,1.036-25.531
					C145.527,476.996,140.563,478.114,136.645,477.977z"/>
				<g>
					<path style="fill:#A1B78B;" d="M169.869,459.914c-2.785-0.708-5.556-1.464-8.312-2.269c0.481,10.048,1.221,26.4,1.874,42.355
						h7.882C171.292,486.626,170.812,473.254,169.869,459.914z"/>
					<path style="fill:#A1B78B;" d="M206.31,466.591c-10.288-1.229-20.48-2.949-30.512-5.246
						c1.293,12.885,2.585,25.769,3.878,38.654h27.182C206.495,488.868,206.315,477.73,206.31,466.591z"/>
				</g>
			</g>
			<polygon style="fill:#597D68;" points="17.75,351.913 16.497,363.896 19.375,367.529 			"/>
			<polygon style="fill:#597D68;" points="63.371,369.797 62.118,381.78 64.996,385.413 			"/>
			<polygon style="fill:#597D68;" points="33.438,379.906 31.592,397.556 35.831,402.906 			"/>
			<polygon style="fill:#597D68;" points="97.937,435.939 96.092,453.589 100.331,458.939 			"/>
			<polygon style="fill:#597D68;" points="17.662,396.772 15.817,414.422 20.056,419.772 			"/>
		</g>
		<g>
			<path style="fill:#7CA588;" d="M500,438.118c-2.157-1.538-4.468-2.902-6.763-4.2c-14.789-8.366-30.485-15.548-47.199-18.61
				c-4.31-0.789-9.172-1.179-12.674,1.455c-3.501,2.634-3.607,9.383,0.609,10.575c-20.336-2.436-40.251-8.357-58.615-17.428
				c-19.275-9.521-36.708-22.401-55.722-32.434c-37.202-19.631-80.313-27.883-122.135-23.38c-1.751,0.189-3.753,0.557-4.633,2.082
				c-0.768,1.329-0.355,3.006,0.157,4.452c3.512,9.914,10.991,18.36,20.407,23.045c-7.625-0.976-15.371-0.999-23.001-0.068
				c-4.415,0.538-9.121,1.572-12.108,4.867c-5.755,6.347-1.863,16.434,2.647,23.719c7.996,12.916,17.3,25.015,27.687,36.099
				c-1.696,2.096-3.182,4.373-4.47,6.797c-4.629,8.712-6.837,18.582-6.136,28.448c0.411,5.784,1.621,11.314,3.551,16.461H500
				V438.118z"/>
			<path style="fill:#597D68;" d="M500,438.118c-2.157-1.538-4.468-2.902-6.763-4.2c-14.789-8.366-30.485-15.548-47.199-18.61
				c-0.227-0.042-0.457-0.081-0.687-0.12c-1.467,6.326-1.121,13.282,1.15,19.297c-5.077-3.192-10.154-6.384-15.231-9.577
				c0.504,1.153,1.395,2.06,2.704,2.431c-20.336-2.436-40.251-8.357-58.615-17.428c-19.275-9.521-36.708-22.401-55.722-32.434
				c-36.4-19.208-78.455-27.514-119.426-23.645c1.189,6.759,6.01,12.757,11.854,16.575c6.85,4.475,14.967,6.502,22.912,8.456
				c-4.313,4.852-6.031,11.886-4.442,18.18c-8.335-0.4-16.735,0.612-24.736,2.979c-2.213,0.655-4.505,1.484-6.013,3.231
				c-3.406,3.946-1.13,10.073,1.773,14.401c7.171,10.69,17.575,19.137,29.422,24.15c-3.304,2.213-6.005,5.281-8.293,8.635
				c-6.121,8.973-9.526,20.183-8.389,31.033c0.714,6.815,2.651,12.961,5.512,18.527H500V438.118z"/>
			<g>
				<path style="fill:#264A4F;" d="M323.841,285.418c1.116,15.098,5.024,29.984,11.467,43.683c0.541,1.149,1.108,2.304,1.933,3.27
					c0.644,0.754,1.429,1.373,2.139,2.065c2.196,2.142,3.622,4.932,5.01,7.669c3.071,6.057,6.142,12.113,9.213,18.17
					c1.729,3.411,3.463,6.832,4.763,10.428c1.744,4.826,2.681,9.9,3.612,14.946c4.147-0.177,8.382-1.731,12.192-3.377
					c-3.051-12.435-6.777-24.704-11.157-36.736c-0.891-2.448-1.834-4.931-3.458-6.967c-1.24-1.555-2.834-2.793-4.127-4.305
					c-2.558-2.992-3.798-6.897-4.47-10.775c-1.57-9.061-0.367-18.439-2.026-27.485c-1.073-5.85-3.316-11.411-5.545-16.925
					C336.586,280.985,330.69,283.691,323.841,285.418z"/>
				<g>
					<path style="fill:#8B4324;" d="M314.46,363.659c2.052,1.884,3.631,4.279,4.554,6.907c0.567,1.616,0.879,3.434,0.226,5.018
						c-0.803,1.945-2.839,3.056-4.793,3.836c-1.954,0.78-4.065,1.441-5.497,2.983c-1.432,1.541-1.779,4.337-0.086,5.586
						c4.054,0.404,7.876,0.414,11.744-0.862c3.869-1.277,8.254-6.411,9.422-4.198c1.594-0.656,4.332-2.09,5.926-2.746
						c-1.925-1.518-1.35-4.546-2.197-6.847c-0.662-1.798-2.195-3.108-3.307-4.669c-1.787-2.508-2.455-5.619-3.672-8.448
						c-0.068-0.158-0.146-0.326-0.293-0.417c-0.158-0.098-0.358-0.086-0.543-0.068c-4.01,0.391-7.924,1.74-11.324,3.901
						c-0.133,0.085-0.283,0.202-0.271,0.36C314.36,364.151,314.48,363.815,314.46,363.659z"/>
					<path style="fill:#7A361E;" d="M323.01,385.956c3.123-1.898,6.09-4.789,7.02-3.028c1.594-0.656,4.332-2.09,5.926-2.746
						c-1.925-1.518-1.35-4.546-2.197-6.847c-0.662-1.798-2.195-3.108-3.307-4.669c-1.787-2.508-2.455-5.619-3.672-8.448
						c-0.068-0.158-0.146-0.326-0.293-0.417c-0.158-0.098-0.358-0.086-0.543-0.067c-1.645,0.16-3.271,0.491-4.855,0.963
						c2.189,4.771,4.851,9.443,4.993,14.642C326.187,379.148,324.887,382.715,323.01,385.956z"/>
					<path style="fill:#642D10;" d="M315.411,386.395c-2.599,0.484-5.108,0.083-7.655-0.457c0.088,0.81,0.434,1.553,1.108,2.05
						c4.054,0.404,7.876,0.414,11.744-0.862c3.869-1.277,8.254-6.411,9.422-4.198c1.594-0.656,4.332-2.09,5.926-2.746
						c-1.073-0.846-1.369-2.161-1.568-3.557c-2.718,0.794-5.283,2.336-7.659,3.938C323.183,382.953,319.616,385.611,315.411,386.395
						z"/>
					<path style="fill:#642D10;" d="M317.052,376.985c-0.795-0.311-1.203,0.898-0.374,1.107c1.058,0.266,1.415,1.109,1.886,1.988
						c0.184,0.344,0.794,0.126,0.728-0.255C319.097,378.71,318.109,377.398,317.052,376.985z"/>
					<path style="fill:#642D10;" d="M319.91,378.086c-0.054-0.352-0.101-0.592-0.31-0.889c-0.358-0.507-0.979-1.072-1.541-1.339
						c-0.455-0.216-0.866,0.305-0.617,0.714c0.258,0.423,0.716,0.722,1.074,1.058c0.172,0.161,0.347,0.335,0.532,0.48
						c0.342,0.266,0.525,0.435,0.463,0.908c-0.068,0.525,0.755,0.484,0.663,0.041C320.107,378.728,319.962,378.42,319.91,378.086z"
						/>
					<path style="fill:#642D10;" d="M320.389,375.671c-0.504-0.475-1.232-0.805-1.916-0.589c-0.286,0.09-0.333,0.557-0.038,0.673
						c0.522,0.204,1.002,0.278,1.388,0.725c0.353,0.408,0.511,1.051,0.916,1.387c0.305,0.254,0.749,0.015,0.738-0.371
						C321.458,376.872,320.829,376.085,320.389,375.671z"/>
					<path style="fill:#642D10;" d="M322.701,376.157c-0.84-1.246-2.183-2.461-3.78-2.121c-0.191,0.041-0.205,0.365-0.025,0.43
						c1.193,0.431,2.235,1.232,2.917,2.301C322.185,377.35,323.089,376.734,322.701,376.157z"/>
					<path style="fill:#642D10;" d="M322.644,373.514c-0.943-0.622-2.619-1.093-3.715-0.693c-0.408,0.149-0.427,0.883,0.067,0.918
						c0.578,0.042,1.125,0.028,1.69,0.185c0.558,0.156,1.061,0.44,1.609,0.62C322.941,374.757,323.11,373.821,322.644,373.514z"/>
					<path style="fill:#642D10;" d="M321.702,371.763c-0.579-0.132-1.185-0.099-1.767-0.005c-0.498,0.08-0.997,0.087-1.371,0.452
						c-0.062,0.06-0.055,0.194,0.018,0.243c0.391,0.27,0.753,0.195,1.214,0.173c0.58-0.028,1.152-0.051,1.728,0.038
						C322.107,372.754,322.28,371.895,321.702,371.763z"/>
					<path style="fill:#642D10;" d="M321.298,370.045c-1.011,0.091-2.241,0.027-3.188,0.413c-0.422,0.172-0.379,0.77,0.064,0.879
						c0.994,0.245,2.201,0.001,3.214-0.056C322.185,371.236,322.094,369.973,321.298,370.045z"/>
				</g>
				<g>
					<path style="fill:#8B4324;" d="M363.443,387.653c1.608,2.275,2.645,4.949,2.991,7.713c0.213,1.7,0.134,3.543-0.84,4.952
						c-1.195,1.731-3.42,2.387-5.495,2.737c-2.075,0.349-4.278,0.549-6.003,1.753c-1.726,1.204-2.656,3.863-1.265,5.442
						c3.877,1.252,7.61,2.07,11.661,1.64c4.051-0.43,9.423-4.521,10.097-2.112c1.696-0.304,4.676-1.127,6.372-1.431
						c-1.561-1.891-0.359-4.729-0.7-7.157c-0.267-1.897-1.489-3.502-2.246-5.262c-1.217-2.829-1.212-6.011-1.803-9.034
						c-0.033-0.169-0.074-0.349-0.198-0.469c-0.133-0.129-0.332-0.159-0.517-0.181c-4.002-0.465-8.112,0.025-11.893,1.419
						c-0.148,0.055-0.319,0.138-0.341,0.294C363.241,388.114,363.429,387.811,363.443,387.653z"/>
					<path style="fill:#7A361E;" d="M367.088,411.254c3.454-1.195,6.965-3.393,7.501-1.476c1.696-0.304,4.676-1.127,6.372-1.431
						c-1.561-1.891-0.359-4.729-0.7-7.157c-0.267-1.897-1.489-3.502-2.246-5.262c-1.217-2.829-1.212-6.011-1.803-9.034
						c-0.033-0.169-0.074-0.349-0.198-0.469c-0.133-0.129-0.332-0.159-0.517-0.181c-1.642-0.191-3.301-0.212-4.949-0.085
						c1.131,5.126,2.745,10.255,1.786,15.367C371.631,405.272,369.607,408.483,367.088,411.254z"/>
					<path style="fill:#642D10;" d="M359.567,410.077c-2.643-0.076-5.01-0.998-7.385-2.064c-0.085,0.81,0.096,1.61,0.65,2.238
						c3.877,1.252,7.61,2.07,11.661,1.64c4.051-0.43,9.423-4.521,10.097-2.112c1.696-0.304,4.676-1.127,6.372-1.431
						c-0.869-1.053-0.881-2.401-0.78-3.808c-2.825,0.202-5.657,1.167-8.318,2.23C367.891,408.356,363.842,410.2,359.567,410.077z"/>
					<path style="fill:#642D10;" d="M363.16,401.227c-0.711-0.472-1.366,0.624-0.6,1.003c0.978,0.484,1.148,1.383,1.423,2.342
						c0.107,0.375,0.75,0.291,0.765-0.096C364.795,403.345,364.105,401.854,363.16,401.227z"/>
					<path style="fill:#642D10;" d="M365.721,402.907c0.021-0.355,0.026-0.6-0.116-0.934c-0.242-0.571-0.73-1.255-1.223-1.635
						c-0.399-0.307-0.911,0.115-0.754,0.568c0.163,0.468,0.547,0.857,0.826,1.261c0.134,0.194,0.268,0.401,0.419,0.581
						c0.278,0.333,0.421,0.536,0.261,0.985c-0.178,0.499,0.636,0.633,0.64,0.18C365.778,403.576,365.701,403.245,365.721,402.907z"
						/>
					<path style="fill:#642D10;" d="M366.7,400.648c-0.393-0.571-1.034-1.048-1.749-0.981c-0.299,0.028-0.444,0.475-0.18,0.65
						c0.467,0.31,0.92,0.484,1.203,1.003c0.258,0.474,0.278,1.135,0.602,1.55c0.245,0.313,0.729,0.173,0.8-0.207
						C367.491,402.048,367.042,401.146,366.7,400.648z"/>
					<path style="fill:#642D10;" d="M368.856,401.612c-0.557-1.396-1.613-2.867-3.246-2.872c-0.195-0.001-0.278,0.313-0.115,0.415
						c1.074,0.673,1.924,1.676,2.365,2.865C368.1,402.669,369.114,402.258,368.856,401.612z"/>
					<path style="fill:#642D10;" d="M369.36,399.017c-0.79-0.807-2.329-1.622-3.484-1.462c-0.43,0.06-0.604,0.773-0.128,0.912
						c0.556,0.163,1.094,0.265,1.613,0.539c0.513,0.27,0.944,0.654,1.441,0.946C369.387,400.294,369.75,399.415,369.36,399.017z"/>
					<path style="fill:#642D10;" d="M368.809,397.106c-0.538-0.251-1.138-0.347-1.726-0.378c-0.503-0.027-0.993-0.126-1.436,0.152
						c-0.073,0.046-0.094,0.178-0.034,0.242c0.325,0.347,0.694,0.35,1.15,0.426c0.573,0.095,1.137,0.194,1.681,0.402
						C368.995,398.16,369.346,397.356,368.809,397.106z"/>
					<path style="fill:#642D10;" d="M368.777,395.341c-1.007-0.125-2.196-0.448-3.203-0.27c-0.449,0.079-0.533,0.673-0.123,0.873
						c0.92,0.449,2.151,0.466,3.153,0.625C369.392,396.692,369.57,395.439,368.777,395.341z"/>
				</g>
				<path style="fill:#335C64;" d="M320.964,277.894c0.661,8.477-6.267,15.634-12.309,22.023
					c-5.281,5.585-10.236,11.442-14.832,17.535c-1.378,1.826-2.784,3.871-2.605,6.091c0.093,1.155,0.614,2.233,1.127,3.283
					c2.09,4.278,4.18,8.556,6.27,12.833c1.641,3.358,3.291,6.734,5.49,9.794c3.982,5.543,9.837,10.232,11.398,16.772
					c4.03,0.397,8.948-1.359,11.27-4.503c-2.697-4.142-4.731-8.668-6.012-13.381c-0.816-3.001-1.335-6.094-2.576-8.96
					c-0.837-1.931-1.987-3.724-3.133-5.508c-1.535-2.391-3.071-4.782-4.606-7.173c4.685-3.439,9.052-6.93,13.737-10.369
					c8.343-6.124,16.879-12.45,22.336-20.968c2.124-3.315,3.774-7.108,3.36-10.937c-0.614-5.678-5.927-10.263-11.876-11.403
					C332.053,271.883,326.003,274.651,320.964,277.894z"/>
				<g>
					<path style="fill:#F58E81;" d="M296.552,195.945c-0.148,0.499-0.337,1.005-0.291,1.524c0.007,0.079,0.024,0.166,0.087,0.215
						c0.066,0.05,0.158,0.041,0.24,0.026c0.938-0.175,1.728-0.786,2.455-1.404c0.079-0.068,0.161-0.139,0.204-0.234
						c0.058-0.13,0.033-0.281,0.014-0.422c-0.153-1.112,0.108-2.288-0.284-3.339c-0.298-0.798-1.642-2.337-2.081-0.861
						c-0.17,0.572,0.096,1.501,0.064,2.115C296.917,194.369,296.781,195.171,296.552,195.945z"/>
					<path style="fill:#FFF197;" d="M315.758,198.667c-3.924-5.314,0.076-13.966-4.288-18.925c-1.924-2.186-5.052-2.975-7.959-2.799
						c-2.28,0.139-4.605,0.847-6.266,2.416c-1.661,1.569-1.557,3.669-1.709,5.948c-0.167,2.493,0.379,5.023,1.536,7.237
						c-0.035,0.307-0.052,0.617-0.047,0.926c0,0.012,0,0.024,0,0.036c0.009,0.444,0.066,0.881,0.182,1.299
						c0.58,2.976,2.127,5.712,3.646,8.36c0.175,0.305,0.366,0.617,0.577,0.909c0.29,0.546,0.617,1.017,1.265,1.235
						c0.081,0.027,0.162,0.046,0.242,0.068c0.449,0.33,1.091,0.418,1.657,0.318c0.893-0.158,1.595-0.74,2.323-1.256
						c1.229,1.796,2.239,3.479,2.911,5.639c0.31-1.423,2.044-1.786,3.127-2.759c0.593-0.533,1.019-1.222,1.535-1.829
						c1.213-1.425,2.89-2.362,4.556-3.213C318.125,200.975,316.706,199.952,315.758,198.667z"/>
					<path style="fill:#CFA85E;" d="M319.047,202.279c-0.922-1.304-2.34-2.327-3.289-3.611c-3.924-5.314,0.076-13.966-4.288-18.925
						c-1.924-2.186-5.052-2.975-7.959-2.799c-2.28,0.139-4.605,0.847-6.266,2.416c-0.496,0.469-0.833,0.986-1.068,1.54
						c0.114,1.85,0.36,3.692,0.749,5.504c0.08,0.373,0.17,0.756,0.39,1.069c0.2,0.284,0.493,0.492,0.699,0.771
						c0.586,0.796,0.32,1.898,0.358,2.885c0.061,1.577,0.951,2.982,1.738,4.35c1.845,3.21,3.258,6.668,4.198,10.25
						c0.097-0.006,0.193-0.015,0.286-0.032c0.785-0.139,1.422-0.604,2.058-1.065c0.273-1.184,0.491-2.38,0.64-3.585
						c0.144-1.168,0.332-2.516,1.334-3.133c1.408,3.117,2.92,6.187,4.524,9.208c0.492-0.5,0.884-1.094,1.34-1.63
						C315.703,204.067,317.38,203.13,319.047,202.279z"/>
					<path style="fill:#0A3542;" d="M298.833,174.38c-1.452-0.295-2.942-0.561-4.409-0.348c-1.466,0.214-2.927,0.988-3.603,2.307
						c-0.676,1.319-0.308,3.189,1.003,3.88c-1.133-0.404-2.031-1.411-2.304-2.583c-0.273-1.172,0.088-2.472,0.926-3.335
						c-1.528,1.011-1.911,3.254-1.135,4.914c0.775,1.66,2.464,2.753,4.234,3.226c0.709,0.19,1.47,0.308,2.05,0.757
						c-0.038-0.742,0.924-1.456,1.665-1.405c0.741,0.051,1.345,0.832,1.206,1.562c-0.091,0.48-0.446,0.901-0.432,1.39
						c0.014,0.487,0.385,0.876,0.695,1.251c1.799,2.175,2.064,5.19,2.348,7.999c0.187,1.848,0.416,3.692,0.645,5.536
						c-0.464-0.246-0.533-0.924-0.972-1.212c-0.164-0.108-0.362-0.148-0.554-0.186c-0.786-0.155-1.571-0.31-2.357-0.464
						c0.367,0.4,0.041,1.188,0.482,1.505c0.138,0.099,0.317,0.118,0.487,0.133c0.652,0.058,1.305,0.117,1.958,0.175
						c-0.134,1.546-0.269,3.097-0.195,4.646c0.06,1.264,0.301,2.61,1.181,3.518c0.687,0.708,1.726,1.055,2.7,0.903
						c0.974-0.152,1.858-0.801,2.295-1.685c0.489-0.988,0.418-2.153,0.263-3.245c-0.396-2.789-1.263-5.496-2.376-8.083
						c-0.785-1.824-1.705-3.878-0.933-5.707c0.127-0.301,0.323-0.605,0.632-0.713c0.477-0.165,0.971,0.208,1.274,0.611
						c0.96,1.278,1.043,3.15,0.199,4.508c0.272,0.14,0.537,0.262,0.838,0.317c2.464,0.45,4.934-0.578,7.215-1.613
						c0.603-3.117,0.597-6.408,0.328-9.571c-0.085-0.992-0.217-1.999-0.636-2.902c-0.419-0.903-1.168-1.7-2.13-1.956
						c-0.152-1.419-1.412-2.506-2.764-2.959c-1.353-0.453-2.812-0.417-4.236-0.494C302.575,174.958,300.643,174.749,298.833,174.38z
						"/>
					<path style="fill:#FFEC5F;" d="M297.368,174.061c-0.813,4.279,0.886,8.645,3.093,12.4c0.78,1.327,1.635,2.624,2.711,3.726
						c2.675,2.739,6.707,4.082,10.49,3.493c0.157-0.024,0.318-0.053,0.453-0.136c0.203-0.124,0.318-0.349,0.423-0.562
						c0.282-0.571,0.563-1.142,0.845-1.713c0.226-0.457,0.376-1.15-0.09-1.356c1.006-1.143,1.484-2.65,1.378-4.169
						c0.397-0.809,0.644-1.691,1.04-2.501c0.347-0.708,0.698-1.428,0.827-2.206c0.129-0.778,0.005-1.635-0.51-2.232
						c-0.275-0.32-0.66-0.567-0.805-0.964c-0.109-0.299-0.06-0.631-0.098-0.948c-0.114-0.962-1.016-1.655-1.942-1.939
						c-0.926-0.284-1.916-0.273-2.864-0.47c-0.88-0.183-1.714-0.542-2.584-0.768c-1.903-0.494-3.972-0.322-5.767,0.479
						c-0.196-0.332-0.39-0.563-0.676-0.821c-0.286-0.258-0.677-0.428-1.057-0.359c-0.249,0.046-0.468,0.188-0.705,0.277
						c-0.662,0.25-1.396,0.074-2.102,0.023c-0.706-0.051-1.537,0.104-1.862,0.732C297.542,174.097,297.379,174.116,297.368,174.061z
						"/>
					<path style="fill:#CFA85E;" d="M318.029,178.804c-0.275-0.319-0.66-0.567-0.805-0.964c-0.109-0.299-0.06-0.631-0.098-0.948
						c-0.083-0.7-0.585-1.255-1.207-1.616c-1.001,3.663-3.275,6.984-6.239,9.392c-2.306,1.873-4.955,3.163-7.756,4.028
						c0.386,0.521,0.794,1.026,1.247,1.49c2.675,2.739,6.707,4.082,10.49,3.493c0.157-0.024,0.318-0.053,0.453-0.136
						c0.203-0.124,0.318-0.349,0.423-0.562c0.282-0.571,0.563-1.142,0.845-1.713c0.226-0.457,0.376-1.15-0.09-1.356
						c1.006-1.143,1.484-2.65,1.378-4.169c0.397-0.809,0.644-1.691,1.04-2.501c0.347-0.708,0.698-1.428,0.827-2.206
						C318.668,180.258,318.544,179.401,318.029,178.804z"/>
					<path style="fill:#B07E09;" d="M315.294,189.912c0.07-0.08,0.131-0.165,0.196-0.248c-0.276-0.104-0.545-0.234-0.809-0.367
						c-1.044-0.524-2.088-1.047-3.132-1.571c-0.916-0.459-1.839-0.923-2.645-1.554c-1.088-0.851-1.929-1.98-2.623-3.174
						c-0.991-1.705-1.698-3.573-2.099-5.504c-0.164-0.789-0.581-2.489-0.568-3.794c-0.096-0.11-0.199-0.215-0.32-0.325
						c-0.286-0.258-0.677-0.428-1.057-0.359c-0.249,0.046-0.468,0.188-0.705,0.277c-0.662,0.25-1.396,0.074-2.102,0.023
						c-0.706-0.051-1.537,0.103-1.862,0.732c-0.026,0.05-0.188,0.069-0.2,0.014c-0.813,4.279,0.886,8.645,3.093,12.399
						c0.78,1.327,1.635,2.624,2.711,3.726c2.675,2.739,6.707,4.082,10.49,3.493c0.157-0.024,0.318-0.053,0.453-0.136
						c0.203-0.124,0.318-0.349,0.423-0.562c0.282-0.571,0.563-1.142,0.845-1.713C315.609,190.811,315.76,190.118,315.294,189.912z"
						/>
				</g>
				<path style="fill:#737144;" d="M308.384,217.62c-0.97,7.389-1.845,15.138,0.812,22.101c1.075,2.816,2.703,5.418,3.52,8.32
					c0.974,3.461,0.735,7.136,0.383,10.714c-0.352,3.578-0.808,7.2-0.247,10.751c0.561,3.551,2.31,7.102,5.408,8.927
					c-0.468,1.621-0.964,2.924-0.723,4.593c3.586,2.332,7.255,4.702,11.398,5.767c6.39,1.644,13.386-0.084,18.792-3.868
					c1.216-0.851,2.412-1.867,2.938-3.255c0.526-1.388,0.14-3.219-1.187-3.885c3.077-5.046,2.38-3.866,3.194-9.72
					c0.677-4.872-1.141-11.607-2.155-16.42c-1.227-5.829-0.68-12.28-3.199-17.678c-2.574-5.515-5.199-12.225-9.94-16.041
					c2.359-0.038,6.6-1.04,8.52-2.412c1.131-0.808,1.572-2.344,1.365-3.718c-0.207-1.374-0.962-2.607-1.832-3.69
					c-2.742-3.417-6.654-5.653-10.468-7.808c-1.504-0.85-3.04-1.712-4.732-2.06c-2.327-0.478-4.752,0.062-6.968,0.916
					C315.378,202.196,309.483,209.242,308.384,217.62z"/>
				<path style="fill:#5E5D38;" d="M336.784,241.717c-3.885-3.884-7.937-7.878-13.083-9.802c-0.591-0.221-1.209-0.415-1.838-0.384
					c-0.63,0.031-1.559,0.547-1.859,1.101c1.359,2.501,2.423,5.161,3.164,7.909c0.866,3.217,1.298,6.575,2.627,9.63
					c1.329,3.055,3.82,5.877,7.105,6.436c-1.681,1.663-1.289,4.56-2.326,6.684c-0.899,1.842-2.684,3.049-4.239,4.383
					c-1.555,1.335-3.032,3.115-2.914,5.16c2.462-0.118,4.937-0.237,7.346-0.76c2.408-0.523,4.769-1.474,6.635-3.085
					c1.929-1.665,3.223-3.929,4.479-6.146c0.946-1.671,1.905-3.373,2.319-5.247c0.643-2.914-0.108-6.001-1.51-8.635
					c-1.402-2.634-3.418-4.884-5.461-7.06"/>
				<path style="fill:#B07E09;" d="M311.029,204.239c2.465-3.633,5.993-6.482,9.92-8.445c3.04-1.52,6.438-2.542,9.817-2.18
					c3.379,0.363,6.713,2.311,8.083,5.422c0.505,1.146,0.571,2.781-0.54,3.359c-0.558,0.29-1.228,0.199-1.851,0.118
					c-4.018-0.522-8.219-0.288-11.933,1.331c-4.078,1.777-7.338,5.138-9.534,9.006c-1.626,2.863-6.05,13.552-7.823,4.911
					C306.291,213.492,308.687,207.689,311.029,204.239z"/>
				<g>
					<path style="fill:#0A3542;" d="M339.91,227.426c-0.025-0.014-0.05-0.028-0.075-0.042
						C339.851,227.396,339.874,227.41,339.91,227.426z"/>
					<path style="fill:#0A3542;" d="M375.867,246.829c-0.358-3.574-1.07-7.144-2.512-10.434c-0.352-0.803-0.747-1.587-1.145-2.369
						c0.542-0.62,0.973-1.341,1.235-2.111c0.874-2.567,0.26-5.426-0.865-7.893c-1.125-2.467-2.736-4.682-3.986-7.088
						c-1.613-3.105-2.615-6.507-4.348-9.547c-1.733-3.039-4.449-5.809-7.905-6.358c-3.455-0.549-7.445,2.016-7.367,5.514
						c-0.621-2.372-3.465-3.693-5.857-3.154c-2.392,0.539-4.249,2.534-5.241,4.776c-0.304,0.687-0.534,1.4-0.721,2.125
						c-2.213-0.302-4.768,0.467-5.354,2.503c-3.817-3.358-10.151-2.294-13.835,1.209c-3.684,3.503-5.187,8.731-5.757,13.783
						c-1.61,14.271,1.902,29.048,6.43,42.677c0.132,0.398,0.303,0.806,0.515,1.165c0.09,1.13,1.337,2.577,1.805,3.203
						c0.629,0.842,1.315,1.311,2.132,1.93c0.117,0.089,0.219,0.165,0.312,0.238c0.04,0.072,0.09,0.142,0.16,0.203
						c0.075,0.066,0.154,0.128,0.236,0.185c0.136,0.2,0.192,0.443,0.164,0.841c-0.046,0.632-0.388,1.377-0.512,2.01
						c-0.573,2.909-0.775,5.697-0.448,8.65c0.226,2.041,0.315,4.565,1.743,6.185c0.714,0.81,1.866-0.195,1.115-0.998
						c-1.624-1.735-1.613-5.705-1.635-7.958c-0.017-1.696,0.262-3.317,0.575-4.973c0.188-0.991,0.662-2.107,0.793-3.138
						c0.966,0.127,2.005,0.058,2.85,0.049c2.933-0.031,5.857-0.414,8.766-0.766c2.859-0.346,5.721-0.715,8.561-1.197
						c2.517-0.427,4.898-1.251,7.369-1.808c1.842,1.574,4.369,2.342,6.774,2.009c2.748-0.38,5.259-2.186,6.494-4.67
						c2.67,0.201,5.218-1.48,6.707-3.705c1.489-2.225,2.089-4.921,2.468-7.571C376.22,255.875,376.317,251.325,375.867,246.829z
						 M338.12,274.91c-2.639,0.349-5.291,0.71-7.948,0.883c-1.788,0.117-3.668-0.083-5.458,0.039
						c-0.887-0.77-1.685-1.404-2.408-2.379c-0.231-0.311-0.974-1.704-1.689-2.458c-4.885-16.904-4.614-14.31-3.618-33.906
						c0.226-4.444,1.057-9.372,4.595-12.072c2.602-1.985,6.185-2.285,9.376-1.561c3.164,0.718,6.04,2.328,8.865,3.926
						c-0.095-0.077,0.12-0.113,0.346-0.076c0.265,0.044,0.417,0.318,0.528,0.562c5.248,11.5,6.392,24.364,8.387,36.846
						c0.41,2.567,0.917,5.249,2.248,7.434c-1.552,0.436-3.087,0.929-4.665,1.277C343.849,274.051,340.992,274.53,338.12,274.91z"/>
				</g>
				<path style="fill:#FFF197;" d="M320.952,270.081c-1.411,0.488-2.804,1.128-4.294,1.214c-0.434,0.025-0.953,0.047-1.174,0.422
					c-0.187,0.318-0.034,0.748,0.246,0.988c0.28,0.24,0.654,0.334,1.013,0.414c-0.803,0.433-1.54,1.194-1.524,2.107
					c0.016,0.912,1.182,1.704,1.888,1.127c-0.148,1.165,1.177,2.244,2.288,1.863c0.096,0.726,0.839,1.302,1.566,1.213
					c-0.247,0.701-0.405,1.663,0.243,2.028c0.409,0.23,0.919,0.064,1.349-0.122c1.934-0.838,3.714-2.029,5.225-3.498
					c0.915-0.889,1.761-1.936,2.016-3.186c0.262-1.288-0.179-2.697-1.129-3.605C326.819,269.28,323.173,269.314,320.952,270.081z"/>
				<path style="fill:#B07E09;" d="M331.714,266.192c-2.122,1.191-4.319,2.249-6.573,3.165c-0.069,2.897,0.983,5.761,2.878,7.954
					c2.881-1.364,5.929-2.373,9.054-2.999C334.721,271.984,332.834,269.305,331.714,266.192z"/>
				<path style="fill:#918F56;" d="M325.345,213.338c-3.994,0.705-7.412,3.818-8.691,7.667c-1.279,3.849-0.463,8.278,1.931,11.553
					c1.875,2.564,4.631,4.463,6.122,7.268c1.037,1.951,1.377,4.194,2.224,6.234c1.878,4.529,6.155,7.733,10.778,9.364
					c-2.055,2.185-4.164,4.457-5.159,7.287c-0.201,0.573-0.36,1.174-0.712,1.669c-0.424,0.596-1.083,0.973-1.652,1.432
					c-1.639,1.321-2.587,3.572-2.06,5.61c0.611,2.365,3.005,3.923,5.417,4.305c2.412,0.382,4.863-0.177,7.241-0.733
					c2.398-0.561,4.841-1.14,6.945-2.419c3.297-2.004,5.423-5.566,6.413-9.296c0.989-3.729,0.957-7.649,0.75-11.502
					c-0.161-3.007-0.43-6.041-1.363-8.904c-0.937-2.876-2.516-5.496-4.165-8.031c-3.424-5.264-7.204-10.316-11.333-15.048
					C334.77,216.059,330.716,212.39,325.345,213.338z"/>
				<path style="fill:#ADC6B9;" d="M323.74,353.34c1.422,3.04,3.272,5.88,5.478,8.41c-3.639,3.844-8.931,6.067-14.223,5.975
					c0.304,0.005-3.479-7.491-3.909-8.12C315.747,358.688,320.16,356.566,323.74,353.34z"/>
				<path style="fill:#ADC6B9;" d="M375.306,381.544c0.461,3.349,1.414,6.647,2.822,9.766c-4.864,2.46-10.871,2.842-16.143,1.028
					c0.303,0.104-1.111-8.242-1.342-8.979C365.604,384.01,370.696,383.437,375.306,381.544z"/>
			</g>
			<g>
				<g>
					<path style="fill:#335C64;" d="M434.764,408.904c-1.005-7.709-3.078-15.513-7.777-21.707
						c-4.699-6.194-12.445-10.5-20.145-9.429c-2.957,0.411-5.969,1.732-7.543,4.268c-1.207,1.945-1.419,4.39-0.976,6.636
						c0.442,2.246,1.488,4.328,2.657,6.296c4.566,7.685,11.082,13.977,16.96,20.712c5.877,6.735,11.316,14.312,12.986,23.094
						c0.175,0.919,0.384,1.965,1.186,2.445c0.888,0.532,2.103,0.041,2.715-0.794c1.311-1.786,0.779-4.576,0.82-6.645
						c0.054-2.771,0.094-5.542,0.082-8.313C435.706,419.936,435.479,414.395,434.764,408.904z"/>
					<path style="fill:#1E3F45;" d="M421.445,398.346c-1.095-1.515-2.257-2.982-3.483-4.394c-1.134-1.306-2.695-2.489-3.685-3.887
						c2.458,3.475,4.729,7.083,6.783,10.811c3.645,6.616,6.613,13.621,8.655,20.899c1.015,3.617,1.8,7.3,2.32,11.021
						c0.26,1.86,0.455,3.729,0.579,5.604c0.058,0.873-0.013,2.31,0.667,3.004c0.141-0.026,0.279-0.067,0.416-0.12
						c0.937-3.5,0.173-8.37-0.228-11.87c-0.852-7.436-2.991-14.722-6.27-21.449C425.561,404.601,423.636,401.377,421.445,398.346z"
						/>
				</g>
				<g>
					<path style="fill:#335C64;" d="M434.954,420.198c1.25-4.966,3.206-9.91,6.755-13.601c3.549-3.691,8.947-5.911,13.902-4.619
						c1.902,0.496,3.771,1.592,4.606,3.372c0.64,1.365,0.591,2.98,0.129,4.416c-0.462,1.435-1.306,2.717-2.222,3.914
						c-3.577,4.676-8.323,8.291-12.685,12.244c-4.362,3.953-8.502,8.492-10.269,14.107c-0.185,0.588-0.402,1.256-0.964,1.508
						c-0.622,0.279-1.379-0.135-1.715-0.728c-0.72-1.269-0.158-3.053-0.026-4.409c0.178-1.816,0.364-3.632,0.585-5.444
						C433.49,427.341,434.064,423.734,434.954,420.198z"/>
					<path style="fill:#1E3F45;" d="M444.477,414.315c0.833-0.907,1.706-1.777,2.616-2.606c0.842-0.767,1.954-1.421,2.709-2.259
						c-1.875,2.084-3.638,4.269-5.268,6.55c-2.893,4.047-5.373,8.401-7.268,13.005c-0.942,2.288-1.738,4.637-2.365,7.031
						c-0.313,1.197-0.584,2.405-0.809,3.621c-0.105,0.566-0.169,1.512-0.667,1.913c-0.09-0.028-0.177-0.065-0.263-0.111
						c-0.344-2.362,0.53-5.488,1.062-7.747c1.129-4.799,3.088-9.4,5.75-13.548C441.305,418.091,442.811,416.13,444.477,414.315z"/>
				</g>
			</g>
			<g>
				<g>
					<path style="fill:#335C64;" d="M264.472,361.869c0.416-4.376,1.433-8.826,3.966-12.418c2.533-3.592,6.825-6.178,11.197-5.725
						c1.678,0.174,3.407,0.861,4.346,2.263c0.72,1.075,0.888,2.452,0.682,3.73c-0.206,1.278-0.755,2.475-1.377,3.61
						c-2.428,4.432-5.986,8.116-9.174,12.037c-3.188,3.921-6.112,8.31-6.882,13.305c-0.081,0.523-0.178,1.118-0.622,1.405
						c-0.491,0.318-1.187,0.065-1.55-0.395c-0.776-0.983-0.531-2.57-0.594-3.738c-0.085-1.564-0.163-3.129-0.211-4.696
						C264.157,368.121,264.176,364.985,264.472,361.869z"/>
					<path style="fill:#1E3F45;" d="M271.789,355.641c0.589-0.878,1.217-1.729,1.882-2.551c0.615-0.76,1.474-1.459,2.005-2.269
						c-1.32,2.012-2.533,4.095-3.62,6.242c-1.929,3.81-3.468,7.827-4.479,11.979c-0.502,2.064-0.873,4.16-1.094,6.273
						c-0.11,1.056-0.184,2.116-0.217,3.178c-0.016,0.494,0.053,1.305-0.318,1.71c-0.08-0.012-0.159-0.032-0.237-0.06
						c-0.598-1.959-0.263-4.726-0.105-6.712c0.335-4.219,1.4-8.377,3.12-12.243C269.587,359.256,270.611,357.397,271.789,355.641z"
						/>
				</g>
				<g>
					<path style="fill:#335C64;" d="M264.587,368.254c-0.804-2.781-2.007-5.536-4.085-7.552c-2.078-2.015-5.172-3.164-7.946-2.336
						c-1.065,0.318-2.1,0.974-2.536,1.996c-0.335,0.784-0.275,1.696,0.014,2.497c0.289,0.802,0.791,1.509,1.333,2.168
						c2.113,2.571,4.866,4.52,7.409,6.668c2.543,2.148,4.971,4.63,6.08,7.769c0.116,0.329,0.252,0.702,0.574,0.833
						c0.357,0.146,0.776-0.103,0.955-0.445c0.382-0.731,0.029-1.728-0.073-2.492c-0.136-1.023-0.277-2.045-0.438-3.064
						C265.555,372.261,265.16,370.234,264.587,368.254z"/>
					<path style="fill:#1E3F45;" d="M259.09,365.118c-0.488-0.496-0.999-0.97-1.53-1.421c-0.491-0.417-1.132-0.764-1.575-1.223
						c1.1,1.141,2.139,2.341,3.105,3.597c1.714,2.23,3.202,4.641,4.363,7.205c0.577,1.274,1.074,2.585,1.475,3.926
						c0.201,0.67,0.378,1.347,0.529,2.03c0.07,0.318,0.125,0.851,0.415,1.068c0.05-0.017,0.099-0.04,0.146-0.068
						c0.148-1.341-0.408-3.09-0.753-4.356c-0.732-2.689-1.93-5.25-3.516-7.542C260.957,367.188,260.068,366.11,259.09,365.118z"/>
				</g>
			</g>
			<g>
				<path style="fill:#335C64;" d="M229.938,500H500v-40.336c-15.165-4.634-31.33-5.801-46.02-11.961
					c-12.776-5.357-23.858-14.249-35.25-22.344c-45.306-32.195-99.975-53.202-154.389-47.141c-4.156,0.463-8.549,1.195-11.721,4.051
					c-4.922,4.431-5.133,12.706-2.253,18.803c2.881,6.097,8.124,10.525,13.208,14.751c-4.757,2.189-6.992,8.25-6.556,13.68
					c0.435,5.431,2.968,10.396,5.447,15.185c5.257,10.152,10.515,20.305,15.772,30.457C265.092,474.968,234.882,486.272,229.938,500
					z"/>
				<path style="fill:#0A3542;" d="M500,459.664c-15.165-4.634-31.33-5.801-46.02-11.961c-12.776-5.357-23.858-14.249-35.25-22.344
					c-45.306-32.195-99.975-53.202-154.389-47.141c-2.337,0.26-4.749,0.606-6.977,1.366c-1.612,5.198-2.195,10.582-0.156,15.513
					c4.138,10.006,16.529,13.06,27.15,15.168c26.052,5.17,38.825,19.832,19.962,18.856c-6.683-0.346-14.802,0.056-18.041,5.912
					c-2.532,4.58-0.516,10.599,3.259,14.224c3.774,3.625,8.899,5.414,13.852,7.102c15.094,5.142,20.94,20.524,16.816,31.643
					c-1.436,3.873-1.863,7.931-1.562,11.997H500V459.664z"/>
			</g>
		</g>
		<path style="fill:#335C64;" d="M500,29.84c-6.502-11.372-16.204-20.846-28.477-25.046c-6.351-2.173-13.097-2.868-19.775-3.549
			c-4.069-0.415-8.139-0.83-12.208-1.245H274.549c-1.714,1.91-3.211,4.002-4.4,6.23c-3.301,6.184-0.537,15.546-3.573,20.401
			c-2.83,4.525-13.21,6.771-17.541,10.583c-6.005,5.286-10.526,12.296-12.544,20.063c5.589-0.854,10.863-3.559,14.864-7.549
			c-5.314,5.828-8.99,13.141-10.465,20.89c6.965-0.333,13.403-5.626,15.076-12.395c-0.801,5.088-0.154,10.396,1.845,15.144
			c3.621-2.804,6.241-6.853,7.373-11.288c-0.214,3.742,3.955,7.516,7.668,6.211c4.219-1.483,4.799-8.453,0.883-10.613
			c3.194,1.136,6.723,1.311,10.013,0.496c-3.978,1.705-2.551,9.082,1.776,9.18c-3.985,1.165-8.502,2.807-9.918,6.709
			c-1.014,2.793,1.528,6.087,4.007,6.555c-2.444,1.117-4.605,2.817-5.764,5.203c-1.575,3.24-0.599,7.82,2.678,9.316
			c2.258,1.031,5.131-0.265,6.305-2.281c-0.154,3.811,0.765,7.667,2.692,10.962c2.129-1.266,3.948-3.051,5.253-5.157
			c-1.013,3.224-2.028,6.711-0.955,9.916c1.072,3.205,5.227,5.535,7.949,3.532c1.709-1.257,2.047-3.404,1.843-5.612
			c1.154,3.406,3.746,6.339,7.063,7.754c1.864-3.335,2.736-7.213,2.506-11.025c0.865,3.82,4.898,6.912,8.752,5.993
			c3.402-0.811,5.403-4.859,4.624-8.097c2.338,1.905,6.846,1.613,8.462-1.28c2.139-3.831-0.746-9.069-4.93-10.39
			c3.326,0.712,7.29,0.788,9.573-1.734c2.028-2.241,0.574-6.722-2.051-6.977c2.216-0.226,4.432-0.452,6.649-0.678
			c0.71-3.407-1.113-7.181-4.223-8.743c2.252-0.394,4.504-0.787,6.756-1.181c0.033-2.333-1.36-4.63-3.444-5.679
			c3.122,2.018,7.148,2.576,10.702,1.482c-3.675,0.801-6.829,3.659-7.989,7.237c2.58,0.366,5.16,0.731,7.74,1.097
			c-3.617,1.074-7.77,2.666-8.795,6.297c-0.639,2.26,1.44,4.533,3.453,5.089c-4.705,2.607-8.088,7.608-8.509,12.994
			c3.209,1.953,7.586,1.77,10.621-0.444c-6.573,5.189-9.385,14.666-6.704,22.6c4.699,0.14,9.328-2.923,11.036-7.304
			c0.225,4.433,2.973,8.652,6.938,10.649c2.485-2.71,3.704-6.503,3.371-10.158c0.947,4.879,3.396,9.463,6.962,12.928
			c3.627-3.009,4.888-8.54,2.922-12.823c1.875,3.567,5.146,6.376,8.956,7.69c3.354-2.355,4.955-6.942,3.794-10.873
			c0.907,4.105,5.47,7.014,9.574,6.103c-0.065-3.011-0.13-6.023-0.195-9.034c1.97,0.379,4.115-0.329,5.472-1.806
			c0.534-2.311,0.263-4.8-0.754-6.943c2.773,4.026,8.8,5.362,13.014,2.884c-3.822,2.231-3.944,8.702-0.208,11.074
			c-6.223,3.523-10.418,10.383-10.72,17.527c1.892,0.413,3.909,0.228,5.694-0.522c-1.351,3.359-1.369,7.233-0.049,10.605
			c5.529,0.677,11.177-3.73,11.865-9.257c1.736,4.189,5.112,7.673,9.244,9.54c4.034-6.215,5.595-13.988,4.273-21.279
			c2.291,1.913,4.582,3.826,6.873,5.739c3.934-4.441,5.503-10.865,4.061-16.62c1.959,3.377,5.767,5.599,9.671,5.644
			c0.805-2.676,1.61-5.352,2.415-8.028c0.898,5.137,8.13,7.809,12.152,4.488c-1.244,4.422-0.543,9.355,1.882,13.256
			c3.205-2.584,4.936-6.883,4.415-10.967c1.408,6.017,5.081,11.475,10.125,15.045c1.048-5.128,2.096-10.256,3.144-15.384
			c0.708,6.117,8.293,8.396,14.208,6.412V29.84z"/>
		<path style="fill:#7895A4;" d="M500,174.746c-0.37-0.69-0.747-1.377-1.137-2.057c-0.433-5.427-1.218-10.873-1.443-16.309
			c-0.322-7.788-0.599-15.627-1.357-23.387c-1.522-15.578-6.031-29.726-14.215-43.017c-7.359-11.952-12.311-24.916-14.46-38.762
			c-0.909-5.859-1.714-11.75-1.865-17.685c-0.113-4.453,2.248-11.553-0.333-15.393c-0.983-1.462-2.468-2.028-4.173-1.698
			c-10.673,2.067-5.32,26.245-4.236,33.111c2.196,13.909,6.492,26.493,12.052,39.406c2.959,6.873,5.488,13.97,8.174,20.964
			c2.865,7.459,4.698,15.121,5.478,23.075c0.665,6.778,0.715,13.6,1.16,20.39c-8.219-8.293-17.554-15.473-27.193-22.127
			c-15.091-10.417-31.03-19.748-45.32-31.288c-14.76-11.92-25.966-26.949-35.939-42.959c-11.277-18.104-21.134-36.948-34.641-53.561
			c-2.567-3.158-7.995,1.004-5.669,4.374c10.939,15.844,19.852,33.39,29.751,50.191c-3.759-2.34-7.63-4.513-11.469-6.802
			c-7.909-4.716-14.731-12.067-20.802-18.903c-3.219-3.626-6.283-7.39-9.228-11.241c-1.337-1.748-2.652-3.514-3.958-5.285
			c-0.792-1.074-4.353-4.632-4.505-5.781c-0.578-4.364-5.095-7.551-9.109-4.454c-3.881,2.995-2.192,8.292,1.929,9.923
			c0.969,0.384,2.787,3.569,3.555,4.476c1.609,1.897,3.227,3.786,4.867,5.656c3.059,3.487,6.191,6.911,9.461,10.201
			c6.38,6.419,13.295,12.275,20.735,17.43c6.871,4.761,13.131,10.356,19.839,15.337c3.543,2.63,7.009,5.308,10.108,8.462
			c1.074,1.092,2.083,2.438,3.227,3.548c5.714,7.775,12.016,15.085,19.288,21.62c26.891,24.168,63.012,38.301,84.806,68.093
			c1.264,1.728,2.433,3.512,3.55,5.328c0.672,2.093,1.517,4.108,2.618,5.983c0.452,0.769,1.045,1.335,1.708,1.737
			c2.12,4.123,4.066,8.343,6.02,12.541c0.84,1.805,1.783,3.595,2.724,5.39V174.746z"/>
		<path style="fill:#0A3542;" d="M219.948,0c-2.209,3.317-4.068,6.943-5.478,10.934c4.46,1.08,8.852-0.833,11.884-4.251
			c-0.26,1.154-1.509,9.127-2.404,9.342c3.32-0.795,6.108-3.506,6.997-6.802c0.218,3.798,1.362,7.539,3.304,10.81
			c3.018-2.082,5.183-5.365,5.908-8.959c2.942,1.907,6.406,3,9.909,3.127c-5.312,5.444-7.927,13.404-6.878,20.938
			c4.337-2.479,7.811-6.436,9.707-11.057c-1.618,7.349-1.921,14.985-0.889,22.439c4.319-2.818,7.352-7.492,8.284-12.555
			c0.142,3.525,2.429,7.016,5.881,7.637c3.185,0.573,6.383-2.179,6.904-5.159c1.469,2.202,5.003,3.373,7.297,1.681
			c3.229-2.382,2.72-7.921-0.437-10.397c2.456,1.972,6.51,1.465,8.405-1.052c1.894-2.516,1.26-6.553-1.315-8.368
			c2.9,2.265,6.537,3.571,10.216,3.666c0.882-3.814-0.474-8.061-3.403-10.658c4.755,1.676,9.985,1.979,14.902,0.865
			c-2.562,3.805-3.597,8.608-2.828,13.13c3.901-0.457,7.623-2.321,10.324-5.172c-6.661,8.959-9.86,20.426-8.798,31.54
			c6.712-3.753,11.751-10.383,13.569-17.854c-0.91,8.053-0.278,16.277,1.85,24.097c4.684-6.144,7.493-13.697,7.964-21.408
			c-0.083,7.037,1.535,14.089,4.676,20.387c4.326-7.568,5.883-16.679,4.318-25.255c0.597,4.655,3.802,8.887,8.12,10.724
			c2.516-5.144,2.581-11.423,0.171-16.618c2.426,1.879,4.852,3.759,7.278,5.638c3.107-3.239,3.158-8.925,0.11-12.22
			c3.699,2.722,9.36,2.309,12.624-0.923c-0.654,4.048,1.377,8.398,4.9,10.495c2.819-2.877,4.944-6.43,6.143-10.276
			c-2.073,11.318-1.711,23.076,1.053,34.246c3.905-5.936,6.215-12.911,6.626-20.005c0.775,6.534,2.887,12.907,6.166,18.611
			c2.572-5.394,3.733-11.441,3.407-17.406c0.772,5.025,3.036,9.821,6.503,13.543c1.838-6.941,1.815-14.365-0.066-21.295
			c1.368,3.506,3.988,6.509,7.277,8.34c2.013-3.263,2.323-7.516,0.803-11.036c3.496,2.721,8.621,3.147,12.519,1.043
			c-4.576,7.052-7.107,15.415-7.209,23.821c0.739-0.218,1.44-0.546,2.094-0.951c-5.421,7.608-9.006,16.525-10.299,25.779
			c7.685-2.045,14.196-8.06,16.842-15.559c-2.019,6.296-2.791,12.988-2.259,19.578c4.202-2.463,7.236-6.831,8.076-11.628
			c0.046,6.267,1.84,12.512,5.126,17.849c1.894-4.125,2.926-8.636,3.044-13.173c0.092,4.614,3.081,9.094,7.368,10.848
			c2.024-5.856,2.579-12.214,1.599-18.332c0.659,2.565,2.275,4.872,4.462,6.366c2.561-6.678,2.562-14.302,0.003-20.982
			c0.749,2.363,3.4,3.951,5.837,3.498c2.026-3.136,1.862-7.533-0.391-10.51c4.272,2.868,10.19,3.056,14.635,0.464
			c-3.522,5.951-4.789,13.2-3.496,19.992c2.444-1.857,4.888-3.715,7.333-5.572c-5.094,6.73-7.897,15.163-7.846,23.604
			c3.196-1.024,5.918-3.357,7.543-6.287c-1.688,5.735-1.398,12.054,0.91,17.576c2.174-3.894,4.348-7.789,6.522-11.683
			c-0.679,9.813,6.273,19.623,15.757,22.235c0.311-0.206,0.602-0.431,0.9-0.649V0H219.948z"/>
		<path style="fill:#FFFFFF;" d="M420.139,188.843c3.35,5.902,9.173,10.004,15.239,13.046c3.129,1.569,6.411,2.922,9.871,3.451
			c3.46,0.529,7.132,0.185,10.209-1.483c5.889-3.192,8.423-10.889,6.794-17.387c-1.628-6.498-6.718-11.723-12.624-14.884
			c-3.403-1.821-7.089-3.043-10.835-3.93c-3.018-0.715-6.349-1.835-9.443-2.097c-6.667-0.565-11.272,6.513-11.712,12.392
			C417.357,181.71,418.282,185.57,420.139,188.843z"/>
	</g>
</g>
<g id="DESIGNED_BY_FREEPIK">
	<g>
		<g id="XMLID_319_">
			<g id="XMLID_338_">
				<path id="XMLID_346_" style="fill:#FFFFFF;" d="M260.104,471.741c-0.432,0.443-0.803,0.931-1.108,1.453l-0.465-0.241
					c-0.067-0.298-0.349-0.503-0.659-0.466c-0.331,0.039-0.568,0.339-0.529,0.67c0.039,0.331,0.339,0.568,0.67,0.529
					c0.065-0.008,0.127-0.026,0.184-0.052l0.451,0.234c-0.251,0.554-0.433,1.139-0.539,1.744l0.747,0.132
					c0.23-1.306,0.85-2.507,1.792-3.473L260.104,471.741z"/>
				<path id="XMLID_345_" style="fill:#FFFFFF;" d="M265.592,469.439c-0.171,0-0.341,0.006-0.51,0.017l-0.074-0.626
					c0.188-0.149,0.296-0.389,0.266-0.645c-0.046-0.393-0.402-0.674-0.795-0.628c-0.393,0.046-0.674,0.402-0.628,0.795
					c0.03,0.254,0.189,0.461,0.404,0.564l0.074,0.624c-0.714,0.116-1.403,0.332-2.06,0.646l0.327,0.684
					c0.934-0.447,1.942-0.673,2.995-0.673c0.496,0,0.993,0.053,1.475,0.158l0.161-0.741
					C266.692,469.498,266.142,469.439,265.592,469.439z"/>
				<path id="XMLID_344_" style="fill:#FFFFFF;" d="M272.194,471.986c0.331-0.04,0.566-0.341,0.526-0.672
					c-0.04-0.331-0.341-0.566-0.672-0.526c-0.309,0.038-0.535,0.304-0.53,0.609l-0.416,0.363c-0.418-0.43-0.889-0.813-1.408-1.139
					l-0.404,0.641c1.134,0.715,2.021,1.726,2.563,2.925l0.691-0.313c-0.251-0.554-0.568-1.072-0.942-1.545l0.402-0.351
					C272.065,471.991,272.129,471.994,272.194,471.986z"/>
				<path id="XMLID_343_" style="fill:#FFFFFF;" d="M265.044,479.647c-0.386,0.023-0.775,0.035-1.157,0.035
					c-0.88,0-1.733-0.061-2.478-0.179c-0.39-0.062-0.846-0.155-1.27-0.292c1.046,1.861,3.069,3.125,5.388,3.125
					c2.855,0,5.262-1.916,5.95-4.504c-0.682,0.449-1.505,0.825-2.459,1.123C267.839,479.322,266.463,479.562,265.044,479.647z"/>
				<path id="XMLID_339_" style="fill:#FFFFFF;" d="M265.592,470.955c-3.352,0-6.08,2.666-6.08,5.944
					c0,0.426,0.046,0.849,0.137,1.261c0.673,0.483,2.706,0.89,5.348,0.731c2.879-0.173,5.297-0.957,6.672-2.158
					c-0.006-0.195-0.021-0.39-0.045-0.582C271.244,473.189,268.65,470.955,265.592,470.955z M263.432,477.47
					c-1.02,0-1.85-0.83-1.85-1.85c0-1.02,0.83-1.85,1.85-1.85c1.02,0,1.85,0.83,1.85,1.85
					C265.282,476.64,264.452,477.47,263.432,477.47z M268.17,476.561c-0.75,0-1.36-0.61-1.36-1.36s0.61-1.361,1.36-1.361
					c0.75,0,1.361,0.61,1.361,1.361S268.92,476.561,268.17,476.561z"/>
			</g>
			<path id="XMLID_336_" style="fill:#FFFFFF;" d="M281.595,472.822c-0.295-0.116-0.805-0.309-1.382-0.237
				c-0.551,0.068-0.844,0.34-0.844,1.007v0.866h2.228v1.717h-2.228v5.455h-1.932v-5.455h-1.34v-1.717h1.34v-0.888
				c0-1.68,0.896-2.783,2.568-2.783c0.643,0,1.157,0.122,1.59,0.308L281.595,472.822z"/>
			<path id="XMLID_334_" style="fill:#FFFFFF;" d="M286.298,476.154c-0.177-0.03-0.358-0.046-0.526-0.046
				c-0.896,0-1.51,0.548-1.51,1.613v3.908h-1.932v-7.172h1.873v0.785c0.451-0.674,1.14-0.977,2.021-0.977
				c0.414,0,0.848,0.128,1.094,0.337L286.298,476.154z"/>
			<path id="XMLID_331_" style="fill:#FFFFFF;" d="M293.965,478.032c0,0.222-0.015,0.489-0.037,0.651h-5.085
				c0.207,1.036,0.933,1.488,1.843,1.488c0.622,0,1.295-0.252,1.813-0.688l1.133,1.243c-0.814,0.748-1.85,1.088-3.057,1.088
				c-2.198,0-3.723-1.495-3.723-3.753c0-2.257,1.48-3.797,3.627-3.797C292.544,474.265,293.958,475.797,293.965,478.032z
				 M288.851,477.366h3.175c-0.177-0.918-0.733-1.436-1.562-1.436C289.554,475.93,289.021,476.478,288.851,477.366z"/>
			<path id="XMLID_328_" style="fill:#FFFFFF;" d="M301.618,478.032c0,0.222-0.015,0.489-0.037,0.651h-5.085
				c0.207,1.036,0.933,1.488,1.843,1.488c0.622,0,1.295-0.252,1.814-0.688l1.132,1.243c-0.814,0.748-1.85,1.088-3.057,1.088
				c-2.198,0-3.723-1.495-3.723-3.753c0-2.257,1.48-3.797,3.627-3.797C300.197,474.265,301.611,475.797,301.618,478.032z
				 M296.504,477.366h3.175c-0.178-0.918-0.733-1.436-1.562-1.436C297.207,475.93,296.674,476.478,296.504,477.366z"/>
			<path id="XMLID_325_" style="fill:#FFFFFF;" d="M309.964,478.04c0,2.154-1.495,3.775-3.471,3.775
				c-0.962,0-1.643-0.378-2.109-0.933v3.708h-1.924v-10.133h1.887v0.792c0.466-0.585,1.155-0.984,2.139-0.984
				C308.469,474.265,309.964,475.886,309.964,478.04z M304.287,478.04c0,1.132,0.747,1.976,1.843,1.976
				c1.14,0,1.85-0.881,1.85-1.976c0-1.095-0.71-1.976-1.85-1.976C305.035,476.064,304.287,476.907,304.287,478.04z"/>
			<path id="XMLID_322_" style="fill:#FFFFFF;" d="M313.068,472.111c0,0.696-0.54,1.229-1.236,1.229
				c-0.696,0-1.229-0.533-1.229-1.229c0-0.696,0.533-1.243,1.229-1.243C312.527,470.868,313.068,471.415,313.068,472.111z
				 M312.809,481.629h-1.932v-7.172h1.932V481.629z"/>
			<path id="XMLID_320_" style="fill:#FFFFFF;" d="M316.032,477.011l2.701-2.554h2.368l-3.479,3.375l3.501,3.797h-2.376
				l-2.716-2.901v2.901H314.1v-10.658h1.932V477.011z"/>
		</g>
		<g>
			<path style="fill:#FFFFFF;" d="M184.412,481.564v-1.055c-0.527,0.718-1.391,1.23-2.387,1.23c-1.846,0-3.149-1.406-3.149-3.706
				c0-2.256,1.289-3.721,3.149-3.721c0.952,0,1.816,0.469,2.387,1.245v-3.765h1.099v9.77H184.412z M184.412,479.646v-3.208
				c-0.395-0.615-1.245-1.143-2.124-1.143c-1.421,0-2.27,1.172-2.27,2.739c0,1.567,0.85,2.724,2.27,2.724
				C183.168,480.759,184.017,480.261,184.412,479.646z"/>
			<path style="fill:#FFFFFF;" d="M186.932,478.02c0-2.051,1.465-3.706,3.486-3.706c2.139,0,3.398,1.67,3.398,3.794v0.279h-5.727
				c0.088,1.333,1.025,2.446,2.549,2.446c0.806,0,1.626-0.322,2.182-0.893l0.527,0.718c-0.703,0.703-1.655,1.084-2.812,1.084
				C188.441,481.74,186.932,480.232,186.932,478.02z M190.404,475.222c-1.509,0-2.256,1.274-2.314,2.358h4.643
				C192.718,476.525,192.015,475.222,190.404,475.222z"/>
			<path style="fill:#FFFFFF;" d="M194.607,480.627l0.571-0.791c0.469,0.542,1.362,1.011,2.329,1.011c1.084,0,1.67-0.513,1.67-1.216
				c0-1.714-4.38-0.659-4.38-3.281c0-1.098,0.952-2.036,2.636-2.036c1.201,0,2.051,0.454,2.622,1.026l-0.513,0.762
				c-0.424-0.513-1.201-0.894-2.109-0.894c-0.967,0-1.567,0.483-1.567,1.113c0,1.552,4.38,0.527,4.38,3.281
				c0,1.187-0.952,2.139-2.783,2.139C196.306,481.74,195.325,481.389,194.607,480.627z"/>
			<path style="fill:#FFFFFF;" d="M201.477,472.746c0-0.41,0.337-0.747,0.732-0.747c0.41,0,0.747,0.337,0.747,0.747
				c0,0.41-0.337,0.732-0.747,0.732C201.814,473.479,201.477,473.157,201.477,472.746z M201.667,481.564v-7.075h1.099v7.075H201.667
				z"/>
			<path style="fill:#FFFFFF;" d="M204.582,483.381l0.556-0.82c0.586,0.703,1.289,0.967,2.3,0.967c1.172,0,2.27-0.571,2.27-2.124
				v-1.011c-0.513,0.718-1.377,1.26-2.373,1.26c-1.845,0-3.149-1.377-3.149-3.662c0-2.27,1.289-3.677,3.149-3.677
				c0.952,0,1.802,0.469,2.373,1.245v-1.069h1.099v6.87c0,2.344-1.641,3.076-3.369,3.076
				C206.237,484.435,205.417,484.201,204.582,483.381z M209.709,479.528v-3.091c-0.381-0.615-1.23-1.143-2.109-1.143
				c-1.421,0-2.27,1.128-2.27,2.695c0,1.553,0.849,2.695,2.27,2.695C208.478,480.685,209.328,480.144,209.709,479.528z"/>
			<path style="fill:#FFFFFF;" d="M217.413,481.564v-4.629c0-1.245-0.63-1.64-1.582-1.64c-0.865,0-1.685,0.527-2.095,1.099v5.17
				h-1.099v-7.075h1.099v1.025c0.498-0.586,1.464-1.201,2.519-1.201c1.48,0,2.256,0.747,2.256,2.285v4.966H217.413z"/>
			<path style="fill:#FFFFFF;" d="M219.932,478.02c0-2.051,1.465-3.706,3.486-3.706c2.139,0,3.398,1.67,3.398,3.794v0.279h-5.727
				c0.088,1.333,1.025,2.446,2.549,2.446c0.806,0,1.626-0.322,2.183-0.893l0.527,0.718c-0.703,0.703-1.655,1.084-2.812,1.084
				C221.441,481.74,219.932,480.232,219.932,478.02z M223.404,475.222c-1.509,0-2.256,1.274-2.314,2.358h4.643
				C225.718,476.525,225.015,475.222,223.404,475.222z"/>
			<path style="fill:#FFFFFF;" d="M233.35,481.564v-1.055c-0.527,0.718-1.392,1.23-2.388,1.23c-1.846,0-3.149-1.406-3.149-3.706
				c0-2.256,1.289-3.721,3.149-3.721c0.952,0,1.817,0.469,2.388,1.245v-3.765h1.098v9.77H233.35z M233.35,479.646v-3.208
				c-0.396-0.615-1.245-1.143-2.124-1.143c-1.421,0-2.27,1.172-2.27,2.739c0,1.567,0.849,2.724,2.27,2.724
				C232.105,480.759,232.954,480.261,233.35,479.646z"/>
			<path style="fill:#FFFFFF;" d="M239.692,481.564v-9.77h1.098v3.765c0.572-0.776,1.421-1.245,2.388-1.245
				c1.845,0,3.149,1.465,3.149,3.721c0,2.299-1.304,3.706-3.149,3.706c-0.996,0-1.86-0.513-2.388-1.23v1.055H239.692z
				 M242.9,480.759c1.436,0,2.285-1.157,2.285-2.724c0-1.568-0.85-2.739-2.285-2.739c-0.864,0-1.728,0.527-2.109,1.143v3.208
				C241.171,480.261,242.036,480.759,242.9,480.759z"/>
			<path style="fill:#FFFFFF;" d="M247.528,483.337c0.161,0.073,0.425,0.117,0.601,0.117c0.483,0,0.805-0.161,1.055-0.747
				l0.469-1.069l-2.959-7.148h1.187l2.358,5.801l2.344-5.801h1.201l-3.545,8.51c-0.425,1.025-1.143,1.421-2.08,1.435
				c-0.234,0-0.601-0.044-0.806-0.103L247.528,483.337z"/>
		</g>
	</g>
</g>
</svg>
